<svg width="150" height="250" viewBox="0 0 150 250" fill="none" xmlns="http://www.w3.org/2000/svg">
<path d="M60.3934 197.96C60.1158 197.96 60.0233 197.749 60.0233 197.539C65.297 161.131 69.6455 124.198 73.9015 88.5267C76.4921 66.64 79.1752 43.9116 82.0434 21.3936C82.0434 21.1831 82.2284 21.0779 82.4135 21.0779C82.5985 21.0779 82.691 21.2883 82.691 21.4988C79.8229 44.0168 77.1398 66.64 74.5492 88.5267C70.2932 124.198 65.9447 161.131 60.671 197.539C60.671 197.749 60.5784 197.96 60.3934 197.96Z" fill="#212121"/>
<path d="M104.896 209.323C104.711 209.323 104.526 209.218 104.526 209.008C101.288 177.019 97.7721 144.716 93.9787 113.148C92.4984 100.942 90.7405 88.8415 88.9826 77.1616C86.2994 59.2735 83.5238 40.754 82.0435 21.6031C82.0435 21.3927 82.136 21.1823 82.321 21.1823C82.5061 21.1823 82.6911 21.2875 82.6911 21.4979C84.1714 40.6488 86.9471 59.1682 89.6302 76.9511C91.3881 88.631 93.2385 100.732 94.6264 113.043C98.3272 144.716 101.936 176.914 105.174 208.902C105.266 209.113 105.081 209.323 104.896 209.323Z" fill="#212121"/>
<path d="M103.231 241.208C98.9749 246.785 91.5732 248.994 80.6557 248.994C69.7382 248.994 59.8384 244.259 58.0805 241.208C47.9956 221.426 50.6788 207.115 58.0805 193.752H103.231C111.003 211.114 112.761 223.951 103.231 241.208Z" fill="#7C7671"/>
<g opacity="0.47">
<path opacity="0.47" d="M98.1422 245.627C97.4021 245.627 95.6442 247.1 94.8115 247.311C93.5162 247.731 92.1284 248.152 90.8331 248.363C87.5023 248.994 84.079 249.205 80.7482 249.205C69.8307 249.205 59.9309 244.469 58.173 241.418C48.0882 221.636 50.7713 207.325 58.173 193.962C67.9803 193.962 77.7875 193.962 87.5948 193.962C92.776 193.962 98.1422 194.172 103.323 193.962C104.156 195.54 104.434 197.96 103.601 199.539C102.953 200.801 101.843 201.643 100.825 202.485C93.6087 207.641 84.9117 209.009 76.3997 210.272C85.7444 211.324 95.1816 210.482 104.249 207.746C105.544 207.325 106.932 206.904 107.672 205.642C106.377 207.536 109.615 209.535 106.469 211.219C103.046 213.113 99.16 213.954 95.4591 214.691C86.392 216.48 77.0474 216.69 67.8877 216.901C68.4429 216.901 70.2933 224.687 70.7559 225.845C72.0512 229.001 73.7166 232.053 75.4745 234.789C80.9333 243.628 89.0751 245.416 98.1422 245.627Z" fill="#7C7671"/>
</g>
<g opacity="0.69">
<path opacity="0.69" d="M103.323 241.207C102.028 243.312 100.455 244.996 98.6973 244.575C101.565 242.155 103.416 238.366 103.138 234.157C102.861 230.159 100.548 226.266 97.3095 224.582C99.2524 228.16 101.195 231.737 103.138 235.315C97.4945 230.79 93.331 224.056 91.5731 216.48C92.3133 222.162 92.5909 227.949 91.4806 233.526C90.3704 239.103 87.6872 244.469 83.4313 247.521C89.3526 236.893 89.4451 222.898 85.0966 211.324C83.6163 207.431 81.6733 203.642 81.3033 199.433C77.3248 202.695 74.6417 207.536 72.7913 212.692C71.0334 217.848 70.1082 223.319 69.368 228.791C68.9979 224.372 68.6278 220.057 68.3503 215.638C65.9447 221.741 61.5962 226.897 56.23 229.738C62.799 222.267 64.7419 210.903 70.2932 202.485C65.6671 208.693 58.728 214.796 51.6964 216.795C51.7889 212.692 52.0665 208.904 53.2693 204.8C53.7319 203.327 56.6926 193.646 58.0804 193.646H103.231C107.117 202.275 110.355 211.639 109.615 221.531C109.43 223.845 109.06 226.055 108.505 228.265C108.227 229.317 106.654 232.053 106.747 233C106.284 228.686 105.914 224.477 105.451 220.163C105.174 217.848 104.989 215.428 103.971 213.323C102.583 210.482 99.9926 208.693 97.4945 207.01C99.1599 210.377 101.38 213.533 103.878 216.164C100.548 214.06 97.7721 211.008 95.7366 207.325C97.1244 210.903 98.7898 214.375 100.64 217.637C102.213 220.478 103.971 223.109 104.989 226.16C106.747 231.422 106.006 236.788 103.323 241.207Z" fill="#7C7671"/>
</g>
<path d="M80.6557 199.223C93.1236 199.223 103.231 196.773 103.231 193.751C103.231 190.729 93.1236 188.28 80.6557 188.28C68.1877 188.28 58.0804 190.729 58.0804 193.751C58.0804 196.773 68.1877 199.223 80.6557 199.223Z" fill="#474340"/>
<path d="M80.6557 199.749C69.4607 199.749 57.6179 197.645 57.6179 193.751C57.6179 189.858 69.4607 187.754 80.6557 187.754C91.8508 187.754 103.694 189.858 103.694 193.751C103.694 197.645 91.8508 199.749 80.6557 199.749ZM80.6557 188.806C67.6102 188.806 58.5431 191.436 58.5431 193.751C58.5431 196.066 67.6102 198.697 80.6557 198.697C93.7013 198.697 102.768 196.066 102.768 193.751C102.768 191.436 93.7013 188.806 80.6557 188.806Z" fill="#7C7671"/>
<path d="M85.5595 210.167C81.211 210.167 76.955 209.851 72.884 209.64C68.9056 209.325 65.2048 208.799 61.7815 208.062C61.3189 207.957 60.7637 207.852 60.2086 207.746C57.433 207.22 54.3798 206.694 52.4368 204.169C52.3443 203.958 52.3443 203.748 52.4368 203.643C52.6219 203.537 52.8069 203.537 52.8994 203.643C54.6573 205.958 57.618 206.484 60.3011 207.01C60.8563 207.115 61.4114 207.22 61.874 207.325C65.2973 208.062 68.9056 208.588 72.884 208.904C79.1755 209.43 85.9295 209.746 92.5911 209.22C95.5518 209.009 98.5124 208.693 101.381 208.062L102.121 207.852C104.711 207.22 107.672 206.589 109.8 204.695C109.985 204.59 110.17 204.59 110.263 204.8C110.355 205.011 110.355 205.221 110.17 205.326C107.95 207.325 104.896 208.062 102.213 208.588L101.473 208.799C98.5125 209.535 95.5518 209.746 92.6836 209.956C90.2781 210.061 87.965 210.167 85.5595 210.167Z" fill="#EFE8CA"/>
<path d="M109.245 206.694C109.06 206.694 108.967 206.589 108.875 206.378C104.156 168.392 98.3273 129.775 92.5909 92.5256C89.1677 69.9023 85.5593 46.5425 82.3211 23.7088C81.0258 30.8641 79.638 37.9141 78.3427 44.9642C71.2185 82.8449 64.4644 118.621 59.4683 159.553C58.6356 166.183 57.4328 172.601 56.3226 178.809C54.8422 186.807 53.2694 195.119 52.5292 203.958C52.5292 204.169 52.3442 204.379 52.1591 204.274C51.9741 204.274 51.789 204.063 51.8815 203.853C52.6217 194.909 54.1946 186.596 55.6749 178.599C56.7852 172.391 57.988 165.972 58.8206 159.343C63.8168 118.411 70.5709 82.6345 77.695 44.6485C79.1753 36.9671 80.6557 29.1805 82.0435 21.2887L82.4136 19.1842L82.6912 21.2887C86.1145 44.9642 89.7228 69.0605 93.3311 92.3151C99.0674 129.565 104.896 168.182 109.615 206.168C109.615 206.378 109.522 206.589 109.245 206.694C109.245 206.694 109.337 206.694 109.245 206.694Z" fill="#212121"/>
<path d="M82.5987 26.0238C82.4136 26.0238 82.2286 25.9185 82.2286 25.7081C81.951 22.4461 81.766 19.3946 81.8585 16.1327C81.951 14.4491 82.0436 12.8707 82.7837 11.5028C83.0613 10.9767 83.4314 10.5558 83.8015 10.1349C84.079 9.81921 84.2641 9.50354 84.5416 9.18787C85.9295 7.08338 85.6519 4.03188 83.894 2.55874C82.0436 0.875147 79.7305 1.0856 78.2502 2.97963C77.325 4.1371 76.9549 5.92591 77.325 7.39905C77.51 8.13563 78.0651 9.18787 79.453 9.50354C79.638 9.50354 79.7305 9.71399 79.7305 9.92444C79.7305 10.1349 79.5455 10.2401 79.3604 10.2401C78.0651 9.92444 77.0474 8.97742 76.6773 7.6095C76.2147 5.92591 76.5848 3.82143 77.6951 2.45351C79.453 0.243801 82.2286 0.0333519 84.3566 1.92739C86.3921 3.7162 86.6696 7.29383 85.0968 9.71399C84.8192 10.0297 84.6342 10.4506 84.3566 10.7662C83.9865 11.1871 83.709 11.608 83.4314 12.0289C82.7837 13.2916 82.6912 14.7648 82.5987 16.2379C82.5062 19.3946 82.5987 22.4461 82.9688 25.7081C82.9688 25.8133 82.8763 26.0238 82.5987 26.0238C82.6912 26.0238 82.6912 26.0238 82.5987 26.0238Z" fill="#212121"/>
<path d="M81.2109 21.3942C80.8408 21.3942 80.6557 20.7629 80.9333 20.4472C81.2108 20.1315 81.6735 20.0263 82.0435 19.9211C82.1361 19.9211 82.4136 20.0263 82.2286 20.1315C82.8762 19.0793 84.1715 20.6577 83.6164 21.6047C83.5239 21.7099 83.4314 21.8151 83.4314 21.9204C83.4314 22.0256 83.6164 22.1308 83.7089 22.236C84.1715 22.5517 84.3566 23.2883 84.1715 23.8144C84.079 24.3405 83.7089 24.8666 83.3388 25.3928C83.894 25.3928 84.1715 26.0241 84.079 26.5502C83.9865 27.0764 83.4314 27.392 82.9688 27.4973C82.5062 27.6025 81.951 27.4973 81.3959 27.392C80.9333 27.2868 80.4707 27.1816 80.2856 26.7607C80.0081 26.1293 80.6557 25.498 81.2109 25.0771C80.7482 24.9719 80.3782 24.551 80.3782 24.1301C80.3782 23.7092 80.7482 23.2883 81.2109 23.1831C80.9333 23.0778 80.0081 21.3942 81.2109 21.3942Z" fill="#BF7949"/>
<path d="M82.5062 28.0228C82.1361 28.0228 81.766 27.9176 81.3959 27.9176C80.8408 27.8124 80.2856 27.6019 80.0081 27.0758C79.7305 26.5497 79.9156 25.9183 80.5632 25.287C80.2856 25.0765 80.1006 24.6556 80.1006 24.2347C80.1006 23.8138 80.3782 23.3929 80.7483 23.0773C80.4707 22.6564 80.2856 22.025 80.4707 21.4989C80.4707 21.3937 80.5632 21.2884 80.6557 21.2884C80.4707 20.9728 80.5632 20.4467 80.7483 20.2362C81.0258 19.8153 81.581 19.7101 82.0436 19.6049C82.1361 19.6049 82.2286 19.6049 82.3211 19.6049C82.5062 19.4996 82.6912 19.3944 82.9688 19.3944C83.4314 19.4996 83.894 19.9205 84.079 20.4467C84.2641 20.9728 84.2641 21.3937 83.9865 21.8146C84.6341 22.2355 84.9117 23.0773 84.7267 23.9191C84.6341 24.4452 84.3566 24.7608 84.1715 25.1817C84.2641 25.287 84.3566 25.3922 84.4491 25.4974C84.6341 25.8131 84.7267 26.234 84.6341 26.6549C84.4491 27.2862 83.894 27.7071 83.2463 27.9176C82.8762 28.0228 82.6912 28.0228 82.5062 28.0228ZM81.1183 21.8146C81.0258 21.8146 80.9333 21.8146 80.9333 21.8146C80.8408 22.025 81.2109 22.7616 81.3959 22.972L81.951 23.6034L81.2109 23.7086C80.9333 23.7086 80.7483 24.0243 80.6557 24.2347C80.6557 24.4452 80.9333 24.7608 81.1183 24.7608L82.1361 24.8661L81.3034 25.4974C80.8408 25.8131 80.3782 26.3392 80.5632 26.6549C80.6557 26.8653 81.1183 26.9706 81.4884 27.0758C82.0436 27.181 82.5062 27.2862 82.8762 27.181C83.3388 27.0758 83.6164 26.7601 83.7089 26.4444C83.7089 26.3392 83.7089 26.1288 83.6164 26.0235C83.5239 25.9183 83.4314 25.8131 83.2463 25.8131H82.5062L82.9688 25.1817C83.2463 24.7608 83.6164 24.2347 83.7089 23.8138C83.8014 23.3929 83.7089 22.8668 83.3388 22.6564C83.1538 22.5511 82.8762 22.3407 82.8762 22.025C82.8762 21.7093 82.9688 21.4989 83.0613 21.3937C83.2463 21.1832 83.1538 20.8675 83.1538 20.7623C83.0613 20.4467 82.7837 20.2362 82.5987 20.2362H82.5062L82.2286 20.4467L81.0258 21.2884L81.1183 21.8146ZM81.2109 21.078L81.6735 20.4467C81.4884 20.5519 81.3034 20.5519 81.2109 20.7623C81.1183 20.7623 81.0258 20.8675 81.2109 21.078C81.1183 21.078 81.1183 21.078 81.2109 21.078Z" fill="#BF7949"/>
<path d="M51.419 190.173C44.0173 192.278 37.7258 197.644 32.1745 203.642C24.9578 211.323 18.5739 219.952 13.3002 229.422C15.6132 222.793 18.7589 216.585 22.6448 211.008C28.1961 202.906 35.3203 195.961 43.6472 191.752C52.2517 187.332 63.0767 185.228 71.6811 191.015C68.2578 188.7 64.372 187.332 60.3935 187.017C50.5863 185.964 41.1491 190.594 33.0072 196.382C24.6803 202.274 17.5561 210.376 12.1899 219.741C18.2038 209.219 25.513 199.328 34.8576 192.594C40.9641 188.174 47.9032 185.228 55.1198 184.491C58.8207 184.07 62.429 184.386 66.0373 185.228C69.4606 186.07 71.126 187.227 74.0867 189.226C67.7952 177.652 57.988 164.709 45.3125 162.71C35.3202 161.131 25.2354 168.497 20.5168 178.704C24.1252 168.708 31.3418 159.237 40.8715 158.29C45.9602 157.764 50.9564 159.764 55.3974 162.499C64.2794 167.866 71.8662 176.284 75.7521 186.806C74.5493 177.231 65.7598 167.971 59.0057 163.026C51.789 157.87 43.3696 155.028 34.8576 154.502C43.8322 153.24 53.0844 155.344 60.9487 160.29C68.813 165.235 75.2895 173.022 79.1754 182.282C75.567 170.812 70.0158 159.764 60.301 153.766C50.2162 147.558 37.7258 147.137 26.9008 151.451C16.0758 155.765 6.82366 164.604 0.347168 175.337C2.01255 169.339 5.89845 164.499 10.247 160.5C19.314 152.082 30.6017 146.505 42.3519 145.874C54.1021 145.243 66.1299 150.083 74.2717 159.658C68.5354 149.241 57.8029 143.243 46.9779 142.191C36.2455 141.139 25.4205 144.611 15.6132 149.662C23.0149 143.559 31.8044 139.56 40.8715 138.403C50.7713 137.14 61.3187 139.35 68.9055 146.611C74.0867 151.661 77.51 158.817 79.638 166.287C81.6735 173.758 82.5061 181.545 83.3388 189.332C83.894 175.863 80.4707 162.394 74.4568 150.714C68.5354 139.034 60.116 129.143 50.7713 120.936C61.1337 123.251 69.5532 132.51 74.3643 143.243C79.1754 153.976 81.1183 165.972 82.8762 177.862C80.8408 155.66 73.8091 134.089 62.6141 115.675C68.2579 121.778 73.5316 128.617 77.1399 136.404C84.4491 152.082 84.8192 170.602 85.0967 188.385C85.2818 176.915 86.6696 165.446 90.648 154.923C94.6264 144.506 101.473 135.141 110.54 130.09C101.751 141.349 93.6087 153.976 90.9256 168.708C94.1638 156.712 101.658 146.19 111.28 139.981C120.903 133.773 132.653 131.879 143.385 134.825C132.19 135.141 120.903 137.666 111.003 143.664C101.103 149.662 92.6835 159.343 88.8901 171.338C97.8647 156.923 113.223 148.084 128.767 148.189C119.792 151.24 110.633 154.397 102.583 159.974C94.5339 165.551 87.5948 173.864 85.0042 184.176C91.2032 170.917 103.879 161.868 117.017 161.342C107.117 164.814 98.2348 171.654 91.6658 180.703C95.3666 176.389 99.5301 172.39 104.526 170.181C109.522 167.971 115.351 167.866 119.885 170.917C128.119 176.494 129.97 190.384 138.574 195.329C133.485 191.541 129.414 186.385 124.696 182.071C120.07 177.652 114.519 173.969 108.505 173.758C102.213 173.548 96.1068 177.546 92.4984 183.439C91.1106 185.649 90.3705 188.279 89.9079 190.91C89.6303 192.278 89.5378 193.646 89.2602 195.014C89.1677 195.75 89.1677 197.644 88.6126 198.17C88.335 198.486 87.8724 198.591 87.4098 198.697C86.207 198.907 85.0042 199.012 83.8014 199.012C81.6735 199.012 79.5455 198.907 77.4175 198.591C76.5848 198.486 75.7521 198.381 75.0119 198.17C74.6418 198.065 74.1792 198.065 73.9017 197.75C73.254 197.329 72.8839 195.856 72.2363 195.224C71.4961 194.382 70.6634 193.541 69.7382 192.909C67.9803 191.541 66.0373 190.594 64.0019 190.068C59.8384 188.805 55.4899 189.016 51.419 190.173Z" fill="#4F7F36"/>
<path d="M56.7852 176.6C50.3087 174.285 43.2771 175.126 38.9286 181.966C37.1707 184.807 36.1529 188.174 35.5053 191.541C34.0249 199.118 34.21 207.115 35.9679 214.586C32.7296 208.903 31.2493 201.959 31.8969 195.224C32.3595 190.7 33.8399 185.754 36.2455 182.176C38.1884 179.335 42.6294 174.6 45.7751 173.864C41.6117 174.811 37.6333 177.336 34.7651 180.914C31.6194 184.912 30.4166 189.542 29.4914 194.698C28.6587 199.539 26.9933 207.325 29.1213 212.06C25.0504 203.116 26.0681 191.436 31.7119 183.65C27.9185 187.753 25.3279 193.33 24.4952 199.118C23.1074 193.541 25.3279 187.543 28.6587 183.124C35.3202 174.39 48.9209 169.865 58.3581 174.6C62.8916 176.915 66.87 180.493 70.0158 184.807C71.5886 187.017 72.8839 189.332 73.9942 191.857C74.6418 193.33 75.9371 197.96 77.51 198.381C74.6418 197.434 73.6241 193.962 72.2363 191.331C70.6634 188.385 68.9055 185.544 66.7775 183.124C64.0944 180.388 60.486 177.968 56.7852 176.6Z" fill="#4F7F36"/>
<path d="M92.8684 173.127C91.2955 177.441 89.8152 181.861 88.5199 186.386C88.2423 187.438 85.6517 198.802 85.5592 198.802C84.2639 198.802 82.9686 198.802 81.5808 198.802C81.9509 193.12 80.4705 186.912 79.0827 181.44C76.7697 172.496 73.2539 163.868 68.2577 156.397C60.4859 144.611 49.5684 135.562 37.3556 130.617C44.9423 129.459 52.4366 133.668 58.1729 139.35C71.2184 151.977 78.9902 169.444 82.2285 188.385C81.3958 177.862 80.0079 166.393 77.4173 156.186C73.7165 141.244 65.7597 128.197 57.2477 116.096C63.7242 119.463 68.8129 125.566 72.3287 132.616C75.937 139.561 78.065 147.453 79.6379 155.239C81.9509 166.077 83.3387 177.231 83.8938 188.385C83.3387 174.074 82.7836 159.869 82.321 145.559C81.9509 136.614 81.6733 127.67 82.0434 118.726C83.8013 135.247 84.634 151.872 84.7265 168.497C84.7265 171.338 84.7265 174.285 85.4667 177.021C84.7265 161.132 88.5199 145.032 96.0141 131.669C91.9432 149.767 87.8723 167.866 86.2069 186.491C87.4097 161.868 100.825 138.508 120.255 127.46C104.341 143.98 91.7582 161.763 86.577 185.965C88.89 175.021 92.3133 163.657 99.4374 155.45C106.284 147.453 116.184 141.876 125.713 139.666C123.215 140.192 120.347 142.717 118.034 144.085C115.259 145.769 112.483 147.663 109.892 149.662C106.191 152.398 102.398 154.923 99.3449 158.712C96.2917 162.5 94.5338 168.182 92.7759 172.917C92.9609 173.022 92.9609 173.022 92.8684 173.127Z" fill="#78AD5C"/>
<path d="M64.2794 195.961C62.0588 199.749 60.3935 204.379 57.5253 207.01C54.1945 210.167 49.3834 211.114 45.22 209.43C48.1807 210.482 50.8638 212.376 54.0095 211.64C60.3935 210.167 62.7065 204.695 65.9447 198.908C67.5176 196.067 69.5531 193.541 71.8661 191.542C73.439 190.174 75.1044 189.017 77.0473 188.806C78.9903 188.596 81.1182 189.648 81.8584 191.647C79.2678 190.7 76.4922 192.173 74.4567 194.067C65.7597 202.17 66.3148 217.848 63.3541 229.107C65.3896 221.32 67.5176 213.429 71.0334 206.273C73.5315 201.012 79.3603 189.858 85.9294 195.33C84.8191 191.332 82.2285 186.596 78.1576 186.386C73.9016 186.07 69.368 189.543 66.4074 192.805C65.7597 193.646 65.0195 194.804 64.2794 195.961Z" fill="#78AD5C"/>
<path d="M78.8978 197.119C81.8585 193.331 84.7267 189.648 88.9827 188.28C93.7013 186.807 98.8824 187.017 103.416 189.016C107.672 190.91 111.928 194.172 115.351 197.75C121.92 204.484 126.546 213.323 129.97 222.583C131.82 227.529 133.763 233.316 138.204 235.315C136.261 235.631 134.411 234.158 132.93 232.579C126.639 226.055 122.66 217.322 117.849 209.43C113.038 201.538 106.654 193.962 98.3273 192.068C100.64 193.12 102.491 195.119 104.064 197.434C110.54 206.799 111.835 220.479 107.209 231.106C106.007 233.842 104.434 236.473 103.601 239.314C102.768 242.26 102.768 245.732 104.434 248.047C101.751 244.785 101.288 240.05 101.843 235.631C102.398 231.317 103.879 227.108 104.619 222.899C105.451 218.374 105.637 213.744 105.174 209.114C104.619 204.064 102.953 198.802 99.4376 195.751C96.5694 193.225 92.6835 192.489 89.0752 193.015C85.5594 193.541 82.1361 195.225 78.8978 197.119Z" fill="#4F7F36"/>
<path d="M94.349 207.642C96.1069 214.692 99.1601 223.215 105.359 226.792C108.875 228.792 113.131 228.476 117.109 227.845C113.501 228.371 110.91 230.054 107.024 229.002C103.601 228.055 100.27 225.74 97.9573 222.794C93.5163 217.007 90.7406 208.799 88.5201 201.644C88.0575 200.171 87.3173 196.383 85.3744 196.593C84.8193 196.698 84.2641 197.119 83.8941 197.645C83.8015 197.856 83.3389 199.013 83.2464 199.013C81.7661 198.908 80.2857 198.908 78.7129 198.803C78.6203 198.803 78.5278 198.803 78.4353 198.697C78.2502 198.487 78.2502 197.014 78.2502 196.698C78.2502 195.962 78.4353 195.225 78.6203 194.594C79.0829 193.331 79.8231 192.279 80.7483 191.542C82.7838 189.964 85.3744 190.069 87.4099 191.437C90.8331 193.647 91.9434 198.487 92.9611 202.801C93.6088 204.38 93.9789 205.958 94.349 207.642Z" fill="#2D5E2D"/>
<path d="M87.4097 212.271C89.5377 218.69 92.2208 225.109 92.1283 231.948C92.0358 237.42 90.0928 242.681 87.8723 247.521C92.2208 244.786 94.5339 238.998 94.8114 233.421C95.089 227.845 93.7012 222.268 92.0358 217.006C89.6302 209.115 85.1892 198.592 90.2779 190.806C90.3704 190.595 90.5555 190.385 90.5555 190.174C90.5555 190.069 90.4629 189.964 90.4629 189.859C89.8153 188.491 88.0574 188.385 86.9471 189.122C85.8369 189.964 85.1892 191.437 84.9117 192.91C83.3388 199.118 85.4668 206.484 87.4097 212.271Z" fill="#437039"/>
<path d="M95.7366 178.599C99.53 176.284 103.786 175.337 107.764 177.757C111.558 180.072 113.871 184.702 117.294 187.648C120.532 190.489 124.788 191.963 128.859 191.542C124.696 192.804 120.07 192.173 116.369 189.753C112.576 187.333 109.615 183.545 105.914 181.019C102.398 178.599 98.4197 180.283 95.089 182.598C91.018 185.333 88.2424 189.963 83.7088 191.857C83.1537 192.068 82.321 192.068 82.2285 191.437C85.7443 189.648 87.9648 185.754 90.7405 182.703C92.3133 181.23 93.9787 179.757 95.7366 178.599Z" fill="#437039"/>
<path d="M52.1592 188.806C51.419 189.437 50.7713 190.069 50.0312 190.7C44.9425 195.751 44.4799 201.643 43.0921 208.588C44.9425 199.749 50.7713 192.173 58.1731 188.911C62.1515 187.122 66.5925 186.702 70.7559 187.438C76.2147 188.385 79.3604 192.278 83.3389 196.172C83.4314 196.277 83.5239 196.382 83.6164 196.382C84.079 196.593 84.6342 196.172 85.0042 195.751C87.6874 193.015 91.3882 192.278 94.5339 190.7C96.4769 189.753 103.323 185.965 105.266 187.017C99.9002 184.071 92.8686 185.86 89.0752 191.121C90.1854 187.543 92.3134 184.492 94.4414 181.546C97.5871 177.126 100.825 172.707 104.064 168.392C96.1068 173.338 89.8154 181.651 86.6696 191.331C91.1107 177.021 95.2741 162.605 99.3451 148.084C91.9433 160.606 87.4098 175.337 86.2995 190.49C87.9649 182.072 89.5378 173.548 89.1677 164.92C88.8901 159.238 87.6874 153.556 87.3173 147.874C86.7622 140.718 87.4098 133.458 89.0752 126.618C85.1893 134.721 85.2818 144.401 85.9295 153.556C86.3921 160.185 87.0397 166.919 86.4846 173.654C86.207 176.705 85.3743 179.651 85.1893 182.703C85.0042 185.965 85.1893 189.437 85.4669 192.699C85.1893 186.912 83.8015 181.23 81.3034 176.179C79.2679 172.075 75.0119 168.919 71.4036 166.709C62.5216 161.132 51.7891 160.185 41.9818 163.026C51.1414 161.658 60.7636 162.289 68.9055 166.919C77.1399 171.654 83.6164 181.125 83.6164 191.542C81.0258 185.544 78.2502 179.125 73.254 175.653C69.2756 172.917 64.372 172.286 59.8384 173.654C55.3974 174.916 51.419 178.073 48.3658 182.072C54.1946 177.652 61.6889 175.653 68.4429 177.652C75.197 179.651 81.2109 185.754 82.9688 193.436C79.453 187.438 73.4391 183.545 67.1476 183.019C61.4113 182.808 56.5077 185.123 52.1592 188.806Z" fill="#79A836"/>
<path d="M73.624 182.282C69.9231 183.334 66.7774 186.175 64.0943 189.332C61.4112 192.488 58.9131 195.856 55.9524 198.591C54.1945 200.17 52.159 201.432 50.5862 203.221C57.2477 200.38 62.4289 194.277 68.4428 190.173C71.4035 188.174 74.7343 186.491 78.2501 186.701C81.6734 186.806 85.0966 189.016 86.2994 192.804C85.0966 185.438 80.5631 180.388 73.624 182.282Z" fill="#78AD5C"/>
<path d="M96.7543 179.862C101.75 175.969 108.134 177.652 113.223 180.599C117.202 182.808 120.902 185.755 125.251 186.912C129.692 188.175 134.596 187.438 138.667 184.913C136.168 186.07 133.578 187.228 130.802 187.228C125.714 187.228 121.458 183.124 117.479 179.441C112.02 174.39 106.099 170.602 99.53 175.022C94.0712 178.705 89.3526 185.649 88.5199 193.015C89.4452 184.702 90.7404 175.653 96.6618 169.971C100.64 166.078 105.914 163.973 111.095 163.973C113.778 163.973 116.461 164.604 119.052 164.394C122.013 164.184 124.788 163.026 127.564 161.763C129.784 160.816 132.005 159.869 133.485 157.765C130.34 160.501 126.176 161.343 122.198 161.448C118.219 161.553 114.241 160.922 110.262 161.237C105.636 161.553 101.103 163.131 97.1244 165.657C93.4236 167.972 90.0928 171.339 88.3349 175.653C85.8368 181.966 87.0396 190.805 87.5022 197.645C87.3172 195.33 89.4451 190.805 90.1853 188.385C91.3881 185.018 94.1637 181.966 96.7543 179.862Z" fill="#78AD5C"/>
<path d="M48.1806 152.293C42.1667 152.609 36.5229 155.555 30.8791 157.765C25.2353 160.08 18.8513 161.658 13.2075 159.343C15.5206 159.974 18.0186 159.448 20.3317 158.817C29.4913 156.081 38.0032 150.083 47.5329 149.452C52.3441 149.136 57.1552 150.294 61.6887 152.188C71.7735 156.397 78.8052 165.025 81.3958 176.916C82.7836 183.019 83.0611 189.332 83.3387 195.54C83.0611 189.437 81.3958 183.019 79.8229 177.231C78.3426 171.97 76.9547 169.76 73.5314 166.183C66.4073 158.712 58.4505 151.767 48.1806 152.293Z" fill="#79A836"/>
<path d="M67.5178 175.127C62.5216 173.338 57.0629 174.811 51.7891 174.18C46.3304 173.549 40.9642 170.602 37.1708 166.078C42.9996 169.445 49.3836 171.444 55.8601 171.97C59.561 172.286 63.3543 172.075 66.9627 173.128C74.6419 175.337 82.8763 185.228 81.581 194.804C80.0082 192.384 79.5456 188.596 78.2503 185.86C76.1223 181.019 72.1439 176.811 67.5178 175.127Z" fill="#437039"/>
<path d="M133.486 150.504C125.344 147.453 116.554 149.031 108.875 153.135C104.249 155.66 99.9003 159.027 95.9219 162.71C93.9789 164.499 92.4061 166.393 90.9257 168.603C89.6304 170.497 87.3174 173.233 86.7623 175.653C88.8902 166.919 88.3351 157.239 89.0753 148.295C89.7229 140.192 91.0182 131.88 93.7939 124.198C95.2742 120.2 97.2172 114.307 99.8078 110.94C94.4415 117.674 90.5556 125.882 88.4276 134.615C86.2071 143.77 86.8548 153.135 86.7623 162.605C86.6697 167.761 86.5772 173.864 84.3567 178.494C85.467 165.025 83.339 150.294 80.3783 137.246C79.1755 131.88 77.6952 126.618 75.2896 121.778C72.8841 116.938 69.5533 112.624 65.2973 109.993C68.8131 114.518 72.1439 119.358 74.4569 124.83C77.6952 132.616 79.4531 141.771 80.8409 150.189C82.3212 159.343 83.2464 168.708 83.4315 177.968C82.4138 171.97 80.7484 165.972 78.2503 160.606C71.5888 146.506 58.1732 138.088 50.3088 124.724C52.3443 128.302 54.3798 131.985 56.7853 135.247C61.689 141.665 68.0729 146.506 72.699 153.345C75.7522 157.87 77.9727 163.131 79.8231 168.498C81.8586 174.39 82.6913 180.178 83.1539 186.491C84.5417 181.125 87.5024 176.495 90.7407 172.18C92.8687 169.339 95.3667 167.025 97.7723 164.499C100.27 161.869 102.953 159.554 105.914 157.554C111.928 153.661 118.775 151.557 125.621 151.767C130.71 151.977 135.799 153.451 140.332 156.081C144.773 158.607 146.994 163.552 148.011 168.919C148.752 173.022 148.752 177.231 148.474 181.335C149.029 179.967 149.122 178.494 149.214 176.916C149.307 173.548 149.399 170.076 148.937 166.709C147.179 157.975 140.61 153.24 133.486 150.504Z" fill="#2D5E2D"/>
<path d="M81.766 187.227C80.4707 185.439 78.4352 186.386 77.0474 187.543C75.1969 189.227 73.7166 191.542 72.8839 194.067C72.0512 196.592 71.8662 199.328 71.7737 201.959C71.6811 205.957 71.6811 209.956 71.8662 213.849C70.3858 207.641 70.2008 200.275 71.4961 193.962C72.1437 190.595 73.5316 187.333 75.7521 185.018C77.1399 183.65 78.8978 182.598 80.6557 182.913C83.2463 183.439 84.7267 186.386 85.6519 188.911C85.9294 185.333 87.4098 181.861 89.7228 179.441C91.7583 177.336 94.9965 177.126 97.1245 179.23C98.6974 180.809 99.2525 183.229 99.9002 185.439C101.103 189.542 102.768 193.646 105.451 196.908C103.879 196.171 102.213 195.33 101.01 193.857C98.6974 190.805 99.2525 185.754 96.847 182.703C95.4591 181.019 93.1461 180.283 91.2031 180.914C88.2425 181.966 87.3172 185.333 86.4846 188.385C86.0219 190.068 86.1145 191.857 85.6519 193.646C85.5593 193.962 84.1715 198.907 84.3566 198.907C83.7089 198.802 83.1538 198.697 82.5061 198.697C83.3388 195.645 83.0613 192.383 82.4136 189.227C82.2286 188.49 82.1361 187.859 81.766 187.227C81.8585 187.438 81.766 187.333 81.766 187.227Z" fill="#79A836"/>
<path d="M93.5162 189.858C94.8115 193.015 95.4591 196.487 96.6619 199.749C97.8647 203.011 99.9002 206.062 102.861 207.115C99.7151 206.589 97.217 203.853 95.5517 200.801C93.8863 197.75 92.8685 194.277 91.6658 191.015C91.0181 189.332 90.0929 187.332 88.4275 187.122C88.1499 187.122 87.8724 187.122 87.5948 187.227C87.4098 187.332 87.3173 187.648 87.1322 187.859C86.207 189.858 85.6519 192.173 85.5593 194.488C84.7266 191.541 84.4491 182.282 89.2602 183.86C91.2957 184.597 92.6835 187.859 93.5162 189.858Z" fill="#78AD5C"/>
<g opacity="0.74">
<g opacity="0.74">
<path opacity="0.74" d="M82.4136 128.512C82.9687 132.406 83.1538 136.299 83.3388 140.192C83.5239 144.086 83.6164 147.979 83.3388 151.872C82.7837 147.979 82.5986 144.086 82.4136 140.192C82.3211 136.404 82.2286 132.511 82.4136 128.512Z" fill="#212121"/>
</g>
<g opacity="0.74">
<path opacity="0.74" d="M86.1145 144.717C85.7444 143.875 85.7444 143.034 85.7444 142.192C85.8369 141.35 85.9294 140.508 86.2995 139.666C86.6696 140.508 86.6696 141.35 86.6696 142.192C86.5771 143.139 86.4846 143.981 86.1145 144.717Z" fill="#212121"/>
</g>
<g opacity="0.74">
<path opacity="0.74" d="M71.7738 129.459C74.2719 132.616 76.2148 136.404 77.6026 140.403C78.9905 144.401 79.8231 148.715 79.8231 152.924C79.083 148.715 78.0652 144.717 76.7699 140.718C75.3821 136.93 73.7167 133.142 71.7738 129.459Z" fill="#212121"/>
</g>
<g opacity="0.74">
<path opacity="0.74" d="M75.2897 160.079C75.8448 160.395 76.2149 160.921 76.4924 161.447C76.77 161.973 76.9551 162.605 76.9551 163.341C76.3999 163.025 76.0298 162.499 75.7523 161.973C75.4747 161.447 75.2897 160.816 75.2897 160.079Z" fill="#212121"/>
</g>
<g opacity="0.74">
<path opacity="0.74" d="M83.7089 191.436C84.1715 192.172 84.3566 193.014 84.3566 193.856C84.3566 194.698 84.079 195.54 83.6164 196.276C83.4314 195.434 83.4314 194.593 83.4314 193.856C83.5239 193.014 83.5239 192.278 83.7089 191.436Z" fill="#212121"/>
</g>
<g opacity="0.74">
<path opacity="0.74" d="M83.7091 180.177C87.2249 174.811 90.9258 169.655 95.1818 165.025C99.4377 160.395 104.249 156.396 109.708 153.555C115.074 150.82 121.088 149.241 127.009 149.767C128.489 149.873 129.97 150.188 131.358 150.504C132.838 150.925 134.226 151.346 135.614 151.977C137.001 152.608 138.297 153.345 139.592 154.292C140.795 155.239 141.998 156.186 143.108 157.343C141.998 156.291 140.795 155.344 139.5 154.502C138.204 153.661 136.909 153.029 135.521 152.398C134.133 151.872 132.745 151.346 131.358 151.03C129.97 150.714 128.489 150.504 127.009 150.399C121.18 149.978 115.444 151.556 110.17 154.292C104.897 157.028 100.085 160.921 95.8294 165.446C91.3884 170.076 87.5025 175.126 83.7091 180.177Z" fill="#212121"/>
</g>
<g opacity="0.74">
<path opacity="0.74" d="M86.2997 173.759C86.8548 169.234 87.0399 164.709 87.2249 160.079C87.3174 155.555 87.4099 150.925 87.6875 146.295C88.0576 141.77 88.6127 137.14 89.723 132.721C90.2781 130.511 91.0183 128.302 91.851 126.302C92.7762 124.198 93.7939 122.199 94.9967 120.41C92.8687 124.303 91.3884 128.512 90.3706 132.931C89.3529 137.351 88.8903 141.876 88.6127 146.4C88.2426 150.925 88.1501 155.555 87.8725 160.079C87.595 164.709 87.2249 169.234 86.2997 173.759Z" fill="#212121"/>
</g>
<g opacity="0.74">
<path opacity="0.74" d="M90.9257 161.026C91.2957 158.711 91.9434 156.501 92.6836 154.397C93.4237 152.187 94.4415 150.188 95.4592 148.189C96.5695 146.189 97.7722 144.295 99.1601 142.612C99.8077 141.77 100.548 140.928 101.288 140.086C102.028 139.35 102.768 138.508 103.601 137.877C103.231 138.297 102.953 138.718 102.583 139.139L101.566 140.507C100.918 141.349 100.27 142.296 99.6227 143.138C98.4199 144.927 97.2171 146.821 96.1994 148.82C95.0891 150.714 94.1639 152.818 93.2387 154.818C92.406 156.712 91.6658 158.816 90.9257 161.026Z" fill="#212121"/>
</g>
<g opacity="0.74">
<path opacity="0.74" d="M100.085 150.399C101.473 146.716 103.509 143.454 105.822 140.508C108.227 137.562 111.003 135.036 114.056 133.247C111.373 135.773 108.875 138.403 106.469 141.244C104.156 144.085 102.028 147.137 100.085 150.399Z" fill="#212121"/>
</g>
<g opacity="0.74">
<path opacity="0.74" d="M107.487 144.296C109.523 142.402 111.743 140.824 114.056 139.561C116.369 138.193 118.867 137.141 121.365 136.299C123.863 135.457 126.454 134.931 129.045 134.615L130.987 134.51L132.93 134.405L134.873 134.51C135.521 134.615 136.169 134.615 136.816 134.721C136.169 134.721 135.521 134.826 134.873 134.826L132.93 134.931L130.987 135.142L129.045 135.457C126.546 135.878 123.956 136.51 121.55 137.351C119.052 138.193 116.647 139.14 114.334 140.298C112.021 141.455 109.708 142.823 107.487 144.296Z" fill="#212121"/>
</g>
<g opacity="0.74">
<path opacity="0.74" d="M61.2263 119.99C62.7992 121.147 64.2795 122.62 65.5748 124.093C66.8701 125.672 68.0729 127.355 69.1831 129.144C71.3111 132.722 72.9765 136.615 74.4569 140.613C75.8447 144.612 77.14 148.611 78.2502 152.714C78.8054 154.819 79.268 156.818 79.7306 158.923C80.1932 161.027 80.6558 163.131 80.9334 165.236C80.3782 163.131 79.8231 161.132 79.268 159.133C78.7129 157.134 78.1577 155.029 77.5101 153.03C76.3073 149.031 75.012 144.928 73.5316 141.034C72.1438 137.036 70.4784 133.248 68.5355 129.67C66.5926 126.093 64.187 122.725 61.2263 119.99Z" fill="#212121"/>
</g>
<g opacity="0.74">
<path opacity="0.74" d="M70.1084 116.306C71.6813 117.885 73.0691 119.779 74.1793 121.883C75.2896 123.988 76.1223 126.197 76.8625 128.512C77.6026 130.722 78.2503 133.142 78.8054 135.457C79.3605 137.772 79.9157 140.087 80.3783 142.507C81.3035 147.242 82.0437 151.977 82.5063 156.818C82.6913 159.238 82.8764 161.658 83.0614 164.078C83.1539 166.498 83.2464 168.918 83.1539 171.338C82.7838 166.498 82.4138 161.763 81.7661 157.028C81.1185 152.293 80.3783 147.558 79.4531 142.928C78.5279 138.298 77.4176 133.563 76.1223 129.038C75.4746 126.723 74.642 124.514 73.7167 122.409C72.7915 119.989 71.5887 117.99 70.1084 116.306Z" fill="#212121"/>
</g>
<g opacity="0.74">
<path opacity="0.74" d="M57.0629 125.356C59.8385 126.724 62.3366 128.723 64.5571 131.143C66.6851 133.563 68.5355 136.404 69.8308 139.456C67.9804 136.72 66.0374 134.194 63.9094 131.88C61.7814 129.459 59.4684 127.355 57.0629 125.356Z" fill="#212121"/>
</g>
<g opacity="0.74">
<path opacity="0.74" d="M45.4052 132.511C47.9032 133.458 50.3088 134.72 52.6218 136.299C54.9349 137.772 57.0628 139.666 59.0983 141.665C61.1338 143.664 62.9842 145.874 64.5571 148.294L65.7599 150.083L66.8701 151.977L67.8878 153.976C68.1654 154.608 68.5355 155.344 68.8131 155.976C68.443 155.344 68.0729 154.713 67.7028 154.082L66.5 152.293L65.2972 150.504L64.0019 148.82C62.244 146.611 60.3936 144.401 58.4507 142.507C56.5077 140.508 54.3797 138.719 52.1592 137.035C50.1237 135.246 47.8107 133.773 45.4052 132.511Z" fill="#212121"/>
</g>
<g opacity="0.74">
<path opacity="0.74" d="M26.1606 157.975C29.1213 157.66 31.897 156.292 34.5801 154.924C37.2632 153.556 40.0388 152.188 42.9995 151.557C45.9602 150.925 48.9209 150.82 51.9741 150.715C53.4545 150.715 55.0273 150.715 56.5077 151.031C57.988 151.346 59.4683 151.978 60.8562 152.609C63.5393 154.082 66.1299 155.766 68.628 157.765C71.126 159.764 73.4391 161.974 75.382 164.499C77.325 167.13 78.8978 170.076 79.9156 173.338C80.9333 176.6 81.4884 179.862 81.951 183.229C81.3034 179.967 80.5632 176.6 79.453 173.549C78.3427 170.392 76.8624 167.551 74.8269 165.025C70.8485 160.08 65.7598 156.397 60.4861 153.556C59.1908 152.819 57.803 152.293 56.4151 151.978C55.0273 151.662 53.547 151.557 52.0666 151.557C49.1059 151.662 46.1453 151.767 43.2771 152.293C40.4089 152.819 37.6333 154.082 34.8577 155.345C31.9895 156.713 29.2139 157.87 26.1606 157.975Z" fill="#212121"/>
</g>
<g opacity="0.74">
<path opacity="0.74" d="M73.9941 189.963C74.2717 188.805 74.7343 187.753 75.382 186.806C76.0296 185.859 76.8623 184.912 77.7875 184.386C78.8053 183.86 80.008 183.649 81.0258 184.07C82.0435 184.491 82.9687 185.438 83.2463 186.596C82.6912 185.649 81.7659 185.123 80.8407 184.912C79.9155 184.702 78.9903 184.912 78.1576 185.438C77.3249 185.859 76.5847 186.596 75.8446 187.438C75.1969 188.174 74.6418 189.121 73.9941 189.963Z" fill="#212121"/>
</g>
<g opacity="0.74">
<path opacity="0.74" d="M86.2997 187.017C86.6698 186.07 87.3174 185.228 88.2426 184.912C88.7052 184.702 89.2604 184.807 89.723 185.017C90.1856 185.228 90.5557 185.649 90.8332 186.07C91.4809 186.911 91.851 187.753 92.3136 188.595C92.7762 189.437 93.1463 190.384 93.5164 191.226C94.9967 194.908 95.3668 198.907 97.1247 202.379C95.9219 200.906 95.1817 199.012 94.5341 197.118C93.8864 195.224 93.4238 193.33 92.6837 191.541C92.3136 190.699 91.9435 189.752 91.4809 188.911C91.1108 188.069 90.6482 187.122 90.2781 186.385C89.8155 185.649 89.1678 185.123 88.3351 185.228C87.5025 185.543 86.7623 186.28 86.2997 187.017Z" fill="#212121"/>
</g>
<g opacity="0.74">
<path opacity="0.74" d="M90.3705 180.072C91.0181 179.441 91.8508 179.02 92.6835 178.704C93.5162 178.494 94.4414 178.388 95.3666 178.809C96.2918 179.125 97.032 179.756 97.5871 180.703C98.0497 181.545 98.4198 182.387 98.8824 183.334C99.2525 184.176 99.6226 185.123 99.9002 186.07C100.178 187.017 100.363 187.964 100.548 188.911C101.01 190.805 101.473 192.594 102.583 194.067C101.936 193.436 101.381 192.699 100.918 191.857C100.455 191.015 100.178 190.068 99.9002 189.121C99.345 187.227 98.8824 185.439 98.0497 183.755C97.6797 182.913 97.3096 181.966 96.847 181.23C96.4769 180.493 95.8292 179.967 95.0891 179.546C93.6087 178.915 91.8508 179.23 90.3705 180.072Z" fill="#212121"/>
</g>
<g opacity="0.74">
<path opacity="0.74" d="M94.9042 188.911C95.0892 188.28 95.5518 187.859 96.0144 187.649C96.477 187.438 97.0322 187.228 97.5873 187.543C97.2172 188.069 96.8471 188.385 96.3845 188.596C95.9219 188.701 95.5518 188.911 94.9042 188.911Z" fill="#212121"/>
</g>
<g opacity="0.74">
<path opacity="0.74" d="M98.1423 177.231C99.1601 176.494 100.27 175.968 101.381 175.547C102.491 175.127 103.694 174.811 104.896 174.706C106.099 174.6 107.394 174.706 108.505 175.127C109.708 175.547 110.818 176.179 111.835 176.915C113.871 178.389 115.721 179.967 117.664 181.545C118.59 182.387 119.607 183.124 120.533 183.86L123.401 186.175C122.29 185.544 121.273 184.912 120.255 184.281C119.237 183.545 118.219 182.913 117.202 182.177C115.166 180.809 113.223 179.125 111.28 177.757C109.337 176.284 107.117 175.442 104.804 175.547C102.676 175.547 100.363 176.284 98.1423 177.231Z" fill="#212121"/>
</g>
<g opacity="0.74">
<path opacity="0.74" d="M107.209 171.339C108.227 171.023 109.337 170.813 110.448 170.707C111.558 170.707 112.668 170.707 113.778 170.918C115.999 171.339 118.127 172.391 119.977 173.864C121.828 175.337 123.308 177.231 124.788 179.02L127.009 181.756C127.749 182.703 128.489 183.65 129.137 184.597C128.304 183.755 127.472 182.913 126.731 182.072L124.326 179.546C122.753 177.863 121.273 175.969 119.515 174.601C117.757 173.233 115.814 172.181 113.686 171.654C112.668 171.339 111.558 171.234 110.54 171.128C109.337 171.234 108.32 171.234 107.209 171.339Z" fill="#212121"/>
</g>
<g opacity="0.74">
<path opacity="0.74" d="M105.359 179.546C107.024 179.336 108.69 180.178 109.985 181.23C111.373 182.387 112.391 183.755 113.593 185.018C115.906 187.543 118.59 189.543 121.55 191.016C118.312 190.279 115.351 188.385 112.946 185.755C111.743 184.387 110.725 183.019 109.522 181.861C108.412 180.809 107.024 179.757 105.359 179.546Z" fill="#212121"/>
</g>
<g opacity="0.74">
<path opacity="0.74" d="M103.046 191.121C106.562 192.594 110.078 194.278 113.131 197.014C116.184 199.749 118.404 203.327 120.44 206.905C122.383 210.587 124.326 214.165 126.176 217.953L128.952 223.53C129.877 225.424 130.802 227.213 131.635 229.107C130.617 227.318 129.6 225.529 128.489 223.741L125.436 218.374L119.515 207.536C117.572 203.958 115.351 200.486 112.576 197.75C111.188 196.382 109.615 195.225 107.95 194.172C106.469 193.015 104.711 192.068 103.046 191.121Z" fill="#212121"/>
</g>
<g opacity="0.74">
<path opacity="0.74" d="M103.786 199.538C105.081 201.432 106.007 203.642 106.747 205.957C107.487 208.272 107.857 210.692 108.042 213.112C108.227 215.532 108.042 218.058 107.672 220.373L107.302 222.162L106.839 223.95L106.284 225.634C106.099 226.16 105.822 226.686 105.544 227.318C105.729 226.686 105.822 226.16 106.007 225.634L106.377 223.845L106.747 222.056L107.024 220.268C107.302 217.953 107.394 215.532 107.209 213.218C107.117 210.903 106.654 208.482 106.192 206.167C105.452 203.958 104.711 201.643 103.786 199.538Z" fill="#212121"/>
</g>
<g opacity="0.74">
<path opacity="0.74" d="M104.434 230.896C104.526 232.369 104.341 233.632 104.064 235C103.786 236.367 103.416 237.63 102.768 238.893C102.676 237.42 102.861 236.157 103.138 234.789C103.416 233.421 103.786 232.053 104.434 230.896Z" fill="#212121"/>
</g>
<g opacity="0.74">
<path opacity="0.74" d="M100.455 224.476C100.085 224.055 99.7151 223.635 99.345 223.108L98.3273 221.635L97.4021 220.162L96.4768 218.584C95.2741 216.479 94.3489 214.27 93.5162 211.955C92.6835 209.64 91.9433 207.325 91.3882 204.905C91.1106 203.747 90.833 202.484 90.5555 201.327C90.2779 200.17 90.0929 198.907 89.8153 197.749C90.1854 198.907 90.5555 200.064 90.9256 201.222L92.0358 204.694C92.776 207.009 93.5162 209.324 94.3489 211.534C95.1815 213.743 96.0142 215.953 97.032 218.163C98.0497 220.373 99.16 222.477 100.455 224.476Z" fill="#212121"/>
</g>
<g opacity="0.74">
<path opacity="0.74" d="M86.4847 197.224C86.2997 199.223 86.3922 201.222 86.6698 203.221C86.9473 205.221 87.4099 207.115 87.9651 209.009C89.0753 212.797 90.4631 216.48 91.7584 220.268C92.9612 224.056 93.9789 228.054 93.9789 232.158C93.9789 234.157 93.7014 236.262 93.2388 238.156C92.6836 240.05 91.851 241.944 90.6482 243.417C91.2033 242.575 91.5734 241.734 91.9435 240.787C92.3136 239.84 92.5911 238.892 92.7762 237.945C93.2388 236.051 93.3313 234.052 93.2388 232.053C93.1463 228.054 92.1285 224.266 90.8332 220.478C89.6305 216.69 88.2426 213.007 87.2249 209.114C86.7623 207.115 86.3922 205.221 86.2072 203.116C86.1146 201.222 86.1146 199.223 86.4847 197.224Z" fill="#212121"/>
</g>
<g opacity="0.74">
<path opacity="0.74" d="M78.1577 193.33C77.1399 194.382 76.1222 195.329 75.197 196.382C74.2718 197.434 73.3466 198.486 72.3289 199.644C72.6989 198.065 73.5316 196.803 74.5494 195.645C75.5671 194.593 76.7699 193.751 78.1577 193.33Z" fill="#212121"/>
</g>
<g opacity="0.74">
<path opacity="0.74" d="M70.0158 205.115C69.6457 206.904 69.1831 208.588 68.628 210.271C68.0729 211.955 67.5177 213.639 66.6851 215.217C66.7776 213.323 67.2402 211.639 67.7953 209.85C68.3504 208.167 68.9981 206.588 70.0158 205.115Z" fill="#212121"/>
</g>
<g opacity="0.74">
<path opacity="0.74" d="M51.9741 211.113C53.8245 209.955 55.5825 208.693 57.2478 207.219C58.8207 205.746 60.301 204.063 61.5963 202.169C62.8916 200.38 63.9094 198.275 65.2047 196.276C65.8523 195.329 66.5 194.382 67.2401 193.435C68.0728 192.593 68.9055 191.857 69.9233 191.436C69.0906 192.067 68.2579 192.909 67.6102 193.856C66.9626 194.698 66.3149 195.75 65.7598 196.697C64.6495 198.696 63.6318 200.906 62.3365 202.8C60.9487 204.694 59.4683 206.483 57.7104 207.851C55.86 209.219 53.9171 210.271 51.9741 211.113Z" fill="#212121"/>
</g>
<g opacity="0.74">
<path opacity="0.74" d="M57.803 198.065C59.0983 196.487 60.3936 194.803 61.6889 193.33C62.9842 191.752 64.372 190.279 65.8524 188.805C68.813 185.964 72.3288 183.86 76.0297 182.913C72.5139 184.702 69.2756 186.911 66.4075 189.647C64.9271 191.015 63.5393 192.488 62.1515 193.961C60.7637 195.329 59.2833 196.697 57.803 198.065Z" fill="#212121"/>
</g>
<g opacity="0.74">
<path opacity="0.74" d="M48.0883 195.224C49.9387 191.857 52.8069 189.227 56.0451 187.438C59.2833 185.754 62.8917 184.912 66.4075 185.438C62.8917 185.754 59.5609 186.701 56.5077 188.385C53.2695 190.068 50.4938 192.383 48.0883 195.224Z" fill="#212121"/>
</g>
<g opacity="0.74">
<path opacity="0.74" d="M57.803 175.968C58.4506 175.232 59.2833 174.916 60.116 174.811C60.9487 174.706 61.8739 174.916 62.5216 175.442C61.6889 175.653 60.9487 175.758 60.116 175.863C59.4684 175.968 58.7282 176.074 57.803 175.968Z" fill="#212121"/>
</g>
<g opacity="0.74">
<path opacity="0.74" d="M47.5331 171.444C48.7359 171.865 50.0312 172.181 51.3264 172.286C52.6217 172.496 53.9171 172.496 55.1198 172.496C57.7104 172.496 60.301 172.391 62.8916 172.496C65.4822 172.707 68.1653 173.128 70.5709 174.496C71.7737 175.127 72.8839 176.074 73.8092 177.021C74.7344 178.073 75.4745 179.336 75.9371 180.704C75.2895 179.441 74.4568 178.284 73.5316 177.337C72.6064 176.39 71.4961 175.653 70.2933 175.127C67.9803 173.969 65.4822 173.549 62.8916 173.443C60.301 173.233 57.803 173.443 55.2124 173.233C53.9171 173.128 52.6217 173.022 51.3264 172.707C49.9386 172.496 48.7359 172.075 47.5331 171.444Z" fill="#212121"/>
</g>
<g opacity="0.74">
<path opacity="0.74" d="M67.1476 164.92C69.0905 165.446 71.0335 166.183 72.7914 167.34C74.5493 168.498 76.2147 170.076 77.1399 172.181C75.6595 170.602 74.0867 169.34 72.3288 168.287C70.6634 167.13 68.9055 166.183 67.1476 164.92Z" fill="#212121"/>
</g>
<g opacity="0.74">
<path opacity="0.74" d="M25.7906 143.664C27.7336 142.612 29.8616 141.876 31.897 141.244C34.025 140.613 36.153 140.192 38.281 139.982C40.409 139.771 42.6295 139.666 44.7575 139.771C45.8678 139.876 46.8855 139.982 47.9958 140.087C49.106 140.297 50.1238 140.402 51.234 140.718C50.6789 140.718 50.1238 140.718 49.6612 140.613H48.0883C46.978 140.613 45.9603 140.613 44.85 140.613C42.722 140.718 40.5941 140.823 38.4661 141.034C36.3381 141.244 34.2101 141.665 32.0821 142.086C30.0466 142.507 27.9186 143.033 25.7906 143.664Z" fill="#212121"/>
</g>
<g opacity="0.74">
<path opacity="0.74" d="M62.8917 151.557C58.1731 149.557 53.1769 148.19 48.1808 147.769C43.1846 147.348 38.096 147.558 33.1923 148.821C28.2887 149.978 23.4776 151.978 19.0366 154.713C16.816 156.081 14.6881 157.66 12.6526 159.343C10.6171 161.027 8.67417 162.921 6.91626 164.92C8.58164 162.711 10.4321 160.816 12.375 158.922C14.318 157.134 16.446 155.45 18.6665 153.977C23.1075 151.031 27.9186 149.031 32.9148 147.769C37.9109 146.611 43.0921 146.296 48.1808 146.927C53.362 147.663 58.2656 149.137 62.8917 151.557Z" fill="#212121"/>
</g>
<g opacity="0.74">
<path opacity="0.74" d="M29.7689 165.341C32.267 162.499 35.6903 160.711 39.1136 159.869C42.6294 159.132 46.3303 159.343 49.661 160.816C46.2377 160.079 42.7219 160.079 39.2986 160.921C35.9678 161.658 32.7296 163.131 29.7689 165.341Z" fill="#212121"/>
</g>
<g opacity="0.74">
<path opacity="0.74" d="M51.6041 157.554C53.177 157.554 54.6573 158.08 56.1377 158.712C57.5255 159.343 58.9133 160.185 60.1161 161.448C58.6358 160.921 57.2479 160.29 55.7676 159.659C54.4723 159.027 53.0845 158.396 51.6041 157.554Z" fill="#212121"/>
</g>
<g opacity="0.74">
<path opacity="0.74" d="M55.7676 164.815C57.2479 165.025 58.7283 165.762 60.0236 166.498C61.3189 167.34 62.6142 168.287 63.6319 169.55C62.1516 168.919 60.8563 168.182 59.561 167.445C58.2657 166.604 56.9704 165.762 55.7676 164.815Z" fill="#212121"/>
</g>
<g opacity="0.74">
<path opacity="0.74" d="M24.8654 192.173C25.698 188.595 27.4559 185.438 29.6765 182.702C31.897 180.072 34.6726 177.862 37.7258 176.705C35.0427 178.599 32.5446 180.808 30.3241 183.439C28.2886 186.07 26.4382 189.016 24.8654 192.173Z" fill="#212121"/>
</g>
<g opacity="0.74">
<path opacity="0.74" d="M27.6412 197.435C27.4562 196.067 27.7337 194.804 28.0113 193.541C28.3814 192.279 28.9365 191.121 29.6767 190.174C29.4916 191.542 29.2141 192.7 28.844 193.857C28.5664 195.12 28.1963 196.277 27.6412 197.435Z" fill="#212121"/>
</g>
<g opacity="0.74">
<path opacity="0.74" d="M33.6549 206.904C33.0997 204.694 32.8222 202.379 32.7296 200.064C32.6371 197.749 32.9147 195.434 33.3773 193.225C33.8399 191.015 34.4875 188.805 35.4128 186.701L36.1529 185.228L36.9856 183.755L37.9108 182.387C38.1884 181.966 38.5585 181.545 38.9286 181.124C38.651 181.65 38.466 182.071 38.1884 182.597L37.4482 184.07L36.8006 185.543L36.1529 187.122C35.4128 189.226 34.7651 191.331 34.3025 193.54C33.8399 195.75 33.5623 197.96 33.4698 200.17C33.3773 202.379 33.4698 204.589 33.6549 206.904Z" fill="#212121"/>
</g>
<g opacity="0.74">
<path opacity="0.74" d="M17.9264 221.109C19.3142 217.532 21.2572 214.165 23.4777 211.113C25.6982 208.062 28.2888 205.326 31.157 203.011C28.7514 205.852 26.4384 208.693 24.2179 211.744C21.9973 214.796 19.9619 217.847 17.9264 221.109Z" fill="#212121"/>
</g>
<g opacity="0.74">
<path opacity="0.74" d="M37.2631 197.434C37.6331 196.592 38.0958 195.961 38.6509 195.434C39.206 194.908 39.8537 194.487 40.6864 194.277C40.3163 195.119 39.8537 195.75 39.2985 196.276C38.7434 196.802 38.0958 197.223 37.2631 197.434Z" fill="#212121"/>
</g>
<g opacity="0.74">
<path opacity="0.74" d="M37.911 191.436C40.039 189.858 42.4446 188.7 44.8501 187.753C47.2557 186.911 49.7537 186.28 52.3443 186.07C49.9388 187.017 47.5332 187.859 45.1277 188.7C42.7221 189.647 40.4091 190.594 37.911 191.436Z" fill="#212121"/>
</g>
<g opacity="0.74">
<path opacity="0.74" d="M88.5201 179.651C89.8154 175.758 91.5733 171.97 94.2565 169.024C95.5518 167.551 97.1246 166.288 98.79 165.341C100.455 164.394 102.306 163.868 104.064 163.342C105.914 162.921 107.765 162.605 109.615 162.5C111.465 162.5 113.316 162.605 115.166 162.815C118.775 163.131 122.475 163.552 125.991 161.974C124.326 162.921 122.475 163.342 120.625 163.552C118.775 163.762 116.924 163.657 115.074 163.552C113.223 163.447 111.465 163.342 109.615 163.447C107.857 163.552 106.007 163.868 104.249 164.289C102.491 164.709 100.733 165.341 99.0676 166.183C97.4022 167.024 95.9218 168.182 94.6265 169.55C93.3312 170.918 92.1285 172.496 91.1107 174.285C90.1855 175.863 89.3528 177.757 88.5201 179.651Z" fill="#212121"/>
</g>
<g opacity="0.74">
<path opacity="0.74" d="M94.6265 175.022C95.8292 172.707 97.5871 170.707 99.5301 169.129C101.473 167.551 103.694 166.393 106.099 165.867C103.971 167.13 102.028 168.498 100.085 169.971C98.2348 171.549 96.4769 173.233 94.6265 175.022Z" fill="#212121"/>
</g>
<g opacity="0.74">
<path opacity="0.74" d="M96.4769 176.495C96.662 175.758 97.0321 175.127 97.4947 174.706C97.9573 174.285 98.6049 173.969 99.2526 173.864C98.975 174.601 98.5124 175.022 98.0498 175.443C97.5872 175.864 97.1246 176.284 96.4769 176.495Z" fill="#212121"/>
</g>
<g opacity="0.74">
<path opacity="0.74" d="M85.9294 183.229C85.5593 182.913 85.5593 182.597 85.5593 182.387C85.6518 182.071 85.7444 181.861 86.1145 181.65C86.4846 181.966 86.4846 182.282 86.4846 182.492C86.392 182.808 86.2995 183.018 85.9294 183.229Z" fill="#212121"/>
</g>
<g opacity="0.74">
<path opacity="0.74" d="M92.6837 165.025C92.6837 162.71 93.4239 160.5 94.2566 158.501C95.1818 156.502 96.292 154.608 97.5873 152.924C96.8472 155.029 95.922 157.028 95.0893 158.922C94.164 160.921 93.4239 162.921 92.6837 165.025Z" fill="#212121"/>
</g>
<g opacity="0.74">
<path opacity="0.74" d="M97.4948 159.974C98.6975 157.975 99.9928 156.186 101.473 154.608C102.954 152.924 104.526 151.346 106.192 149.978C107.857 148.61 109.615 147.347 111.558 146.295C112.483 145.769 113.408 145.243 114.426 144.822C115.444 144.401 116.369 143.98 117.387 143.665C116.924 143.98 116.462 144.191 115.999 144.506L114.611 145.348C113.686 145.874 112.761 146.506 111.928 147.032C110.17 148.189 108.412 149.452 106.839 150.925C105.174 152.293 103.601 153.766 102.028 155.239C100.455 156.607 98.9751 158.291 97.4948 159.974Z" fill="#212121"/>
</g>
<g opacity="0.74">
<path opacity="0.74" d="M89.1678 158.08C88.8903 155.029 89.1678 151.872 89.8155 148.821C90.4631 145.769 91.5734 142.823 93.1463 140.298C92.2211 143.244 91.3884 146.085 90.7407 149.031C90.0005 152.083 89.5379 155.029 89.1678 158.08Z" fill="#212121"/>
</g>
</g>
</svg>
