<svg width="102" height="211" viewBox="0 0 102 211" fill="none" xmlns="http://www.w3.org/2000/svg">
<path d="M89.4279 207.421C89.4279 209.195 72.6785 210.615 51.9547 210.615C31.2309 210.615 14.4816 209.195 14.4816 207.421C14.4816 205.646 31.2309 204.227 51.9547 204.227C72.6785 204.227 89.4279 205.646 89.4279 207.421Z" fill="#F4F2ED"/>
<path d="M11.8608 78.1661C11.8608 78.1661 -1.85794 76.2954 0.76109 73.3022C3.38012 70.309 10.2395 75.2976 10.2395 75.2976C10.2395 75.2976 2.75654 68.1888 5.12614 65.944C7.49574 63.6991 12.4844 73.1775 12.4844 73.1775C12.4844 73.1775 11.1125 64.1979 14.3551 64.6968C17.5977 65.0709 17.2236 76.5448 15.3528 77.2931C13.3574 78.1661 11.8608 78.1661 11.8608 78.1661Z" fill="#E8A0A2"/>
<path d="M31.8152 104.856L27.4501 106.976C27.4501 106.976 16.5999 105.978 9.86522 98.6199C4.50244 92.6336 3.13056 82.4069 12.7337 77.0441C22.3368 71.6813 30.4433 72.8038 34.6837 84.4023C38.5499 95.0032 35.432 103.11 35.432 103.11L31.8152 104.856Z" fill="#399648"/>
<path d="M13.981 76.4198C22.5863 72.4289 29.6951 74.175 33.6861 85.0252C37.5522 95.6261 34.4343 103.733 34.4343 103.733L35.6815 103.109C35.6815 103.109 38.7994 95.0025 34.9332 84.4017C30.6929 73.1772 23.0852 71.6806 13.981 76.4198Z" fill="#497E44"/>
<path d="M11.3617 82.6565C11.7358 83.5295 11.7358 84.4025 11.3617 84.652C10.9875 84.9014 10.2392 84.2778 9.86508 83.4048C9.49094 82.5318 9.49094 81.6588 9.86508 81.4093C10.2392 81.2846 10.8628 81.7835 11.3617 82.6565Z" fill="#B1D8B0"/>
<path d="M9.24168 88.3931C9.61583 89.2661 9.61583 90.1391 9.24168 90.3885C8.86753 90.638 8.11924 90.0144 7.74509 89.1414C7.37094 88.2684 7.37094 87.3953 7.74509 87.1459C8.24395 87.0212 8.86753 87.5201 9.24168 88.3931Z" fill="#B1D8B0"/>
<path d="M14.8539 87.645C15.228 88.518 15.228 89.391 14.8539 89.6405C14.4797 89.8899 13.7314 89.2663 13.3573 88.3933C12.9831 87.5203 12.9831 86.6473 13.3573 86.3979C13.7314 86.2732 14.4797 86.772 14.8539 87.645Z" fill="#B1D8B0"/>
<path d="M18.0964 81.1597C18.4706 82.0327 18.4706 82.9057 18.0964 83.1551C17.7223 83.4046 16.974 82.781 16.5998 81.908C16.2257 81.035 16.2257 80.162 16.5998 79.9125C16.974 79.7878 17.7223 80.2867 18.0964 81.1597Z" fill="#B1D8B0"/>
<path d="M21.0897 87.2708C21.4638 88.1438 21.4638 89.0168 21.0897 89.2662C20.7156 89.5156 19.9673 88.8921 19.5931 88.0191C19.219 87.146 19.219 86.273 19.5931 86.0236C19.9673 85.8989 20.5908 86.3978 21.0897 87.2708Z" fill="#B1D8B0"/>
<path d="M22.4615 77.5431C22.8357 78.4161 22.8357 79.2891 22.4615 79.5385C22.0874 79.7879 21.3391 79.1644 20.9649 78.2914C20.5908 77.4183 20.5908 76.5453 20.9649 76.2959C21.3391 76.0465 22.0874 76.67 22.4615 77.5431Z" fill="#B1D8B0"/>
<path d="M25.5794 83.1554C25.9536 84.0284 25.9536 84.9014 25.5794 85.1508C25.2053 85.4002 24.457 84.7767 24.0829 83.9037C23.7087 83.0306 23.7087 82.1576 24.0829 81.9082C24.5817 81.6588 25.2053 82.2824 25.5794 83.1554Z" fill="#B1D8B0"/>
<path d="M28.0737 77.9175C28.4479 78.7905 28.4479 79.6635 28.0737 79.9129C27.6996 80.1624 26.9513 79.5388 26.5771 78.6658C26.203 77.7928 26.203 76.9198 26.5771 76.6703C26.9513 76.5456 27.6996 77.0445 28.0737 77.9175Z" fill="#B1D8B0"/>
<path d="M31.1918 83.0304C31.5659 83.9034 31.5659 84.7764 31.1918 85.0258C30.8176 85.2753 30.0693 84.6517 29.6952 83.7787C29.321 82.9057 29.321 82.0326 29.6952 81.7832C30.0693 81.5338 30.8176 82.1574 31.1918 83.0304Z" fill="#B1D8B0"/>
<path d="M34.6837 95.2522C35.0578 96.1252 35.0578 96.9982 34.6837 97.2477C34.3095 97.4971 33.5613 96.8735 33.1871 96.0005C32.813 95.1275 32.813 94.2545 33.1871 94.005C33.5613 93.8803 34.3095 94.3792 34.6837 95.2522Z" fill="#B1D8B0"/>
<path d="M10.9877 95.1285C11.3618 96.0015 11.3618 96.8745 10.9877 97.124C10.6135 97.3734 9.86521 96.7498 9.49106 95.8768C9.11691 95.0038 9.11691 94.1308 9.49106 93.8814C9.86521 93.6319 10.6135 94.2555 10.9877 95.1285Z" fill="#B1D8B0"/>
<path d="M16.7246 93.3816C17.0987 94.2546 17.0987 95.1276 16.7246 95.3771C16.3504 95.6265 15.6021 95.0029 15.228 94.1299C14.8539 93.2569 14.8539 92.3839 15.228 92.1344C15.6021 92.0097 16.2257 92.5086 16.7246 93.3816Z" fill="#B1D8B0"/>
<path d="M16.3504 100.491C16.7246 101.364 16.7246 102.237 16.3504 102.486C15.9763 102.735 15.228 102.112 14.8539 101.239C14.4797 100.366 14.4797 99.4928 14.8539 99.2434C15.228 98.994 15.9763 99.6176 16.3504 100.491Z" fill="#B1D8B0"/>
<path d="M20.3414 97.1233C20.7156 97.9963 20.7156 98.8693 20.3414 99.1188C19.9673 99.3682 19.219 98.7446 18.8448 97.8716C18.4707 96.9986 18.4707 96.1256 18.8448 95.8761C19.3437 95.7514 19.9673 96.2503 20.3414 97.1233Z" fill="#B1D8B0"/>
<path d="M24.3324 91.3868C24.7065 92.2598 24.7065 93.1328 24.3324 93.3823C23.9582 93.6317 23.2099 93.0081 22.8358 92.1351C22.4616 91.2621 22.4616 90.3891 22.8358 90.1397C23.2099 89.8902 23.8335 90.5138 24.3324 91.3868Z" fill="#B1D8B0"/>
<path d="M28.9468 89.8899C29.3209 90.7629 29.3209 91.6359 28.9468 91.8854C28.5726 92.1348 27.8243 91.5112 27.4502 90.6382C27.076 89.7652 27.076 88.8922 27.4502 88.6427C27.8243 88.518 28.4479 89.0169 28.9468 89.8899Z" fill="#B1D8B0"/>
<path d="M25.829 98.9945C26.2031 99.8675 26.2031 100.74 25.829 100.99C25.4548 101.239 24.7065 100.616 24.3324 99.7428C23.9582 98.8698 23.9582 97.9967 24.3324 97.7473C24.7065 97.4979 25.3301 98.1215 25.829 98.9945Z" fill="#B1D8B0"/>
<path d="M34.4342 89.765C34.8083 90.638 34.8083 91.511 34.4342 91.7604C34.06 92.0099 33.3117 91.3863 32.9376 90.5133C32.5634 89.6403 32.5634 88.7673 32.9376 88.5178C33.3117 88.2684 34.06 88.892 34.4342 89.765Z" fill="#B1D8B0"/>
<path d="M30.6926 97.3728C31.0668 98.2458 31.0668 99.1188 30.6926 99.3683C30.3185 99.6177 29.5702 98.9941 29.196 98.1211C28.8219 97.2481 28.8219 96.3751 29.196 96.1257C29.5702 96.0009 30.3185 96.4998 30.6926 97.3728Z" fill="#B1D8B0"/>
<path d="M30.3186 102.486C30.6927 103.359 30.6927 104.232 30.3186 104.482C29.9444 104.731 29.1961 104.107 28.822 103.234C28.4478 102.361 28.4478 101.488 28.822 101.239C29.1961 100.99 29.8197 101.613 30.3186 102.486Z" fill="#B1D8B0"/>
<path d="M23.0851 102.611C23.4592 103.484 23.4592 104.357 23.0851 104.607C22.7109 104.856 21.9626 104.233 21.5885 103.36C21.2143 102.487 21.2143 101.614 21.5885 101.364C21.9626 101.239 22.5862 101.738 23.0851 102.611Z" fill="#B1D8B0"/>
<path d="M33.3119 17.8036C33.3119 17.8036 15.4775 16.9306 18.4707 12.815C21.3392 8.69936 30.9423 14.3116 30.9423 14.3116C30.9423 14.3116 20.5909 5.95562 23.4593 2.83772C26.3278 -0.280171 33.8107 11.4431 33.8107 11.4431C33.8107 11.4431 31.067 0.093976 35.1826 0.343408C39.2982 0.468123 40.1712 15.1846 37.8017 16.5565C35.3073 17.6789 33.3119 17.8036 33.3119 17.8036Z" fill="#E8A0A2"/>
<path d="M61.8719 49.9803L56.5091 53.0982C56.5091 53.0982 42.4162 52.9735 33.0626 44.2434C25.4549 37.1346 22.5864 24.0394 34.4344 16.1823C46.2824 8.20054 56.6338 8.6994 63.4932 23.2912C69.729 36.511 66.4864 47.2366 66.4864 47.2366L61.8719 49.9803Z" fill="#399648"/>
<path d="M35.806 15.3098C46.4069 9.32342 55.7606 10.82 61.9963 24.1646C68.2321 37.3845 64.9895 48.11 64.9895 48.11L66.4861 47.237C66.4861 47.237 69.604 36.3867 63.4929 23.2916C57.0077 9.32341 47.0305 8.32569 35.806 15.3098Z" fill="#497E44"/>
<path d="M33.1873 23.6652C33.8108 24.7877 33.9356 25.9101 33.4367 26.1595C32.9378 26.409 31.9401 25.9101 31.3165 24.7877C30.693 23.6652 30.5682 22.5428 31.0671 22.2933C31.566 21.9192 32.5637 22.5428 33.1873 23.6652Z" fill="#B1D8B0"/>
<path d="M31.1918 31.2726C31.8154 32.395 31.9401 33.5175 31.4412 33.7669C30.9424 34.0163 29.9446 33.5175 29.321 32.395C28.6975 31.2726 28.5728 30.1501 29.0716 29.9007C29.5705 29.6513 30.5682 30.2749 31.1918 31.2726Z" fill="#B1D8B0"/>
<path d="M38.3005 29.6515C38.9241 30.7739 39.0488 31.8964 38.55 32.1458C38.0511 32.3952 37.0534 31.8964 36.4298 30.7739C35.8062 29.6515 35.6815 28.529 36.1804 28.2796C36.6792 28.0302 37.677 28.6538 38.3005 29.6515Z" fill="#B1D8B0"/>
<path d="M41.668 20.9213C42.2916 22.0437 42.4163 23.1661 41.9174 23.4156C41.4185 23.665 40.4208 23.1661 39.7972 22.0437C39.1737 20.9213 39.0489 19.7988 39.5478 19.5494C40.1714 19.3 41.0444 19.9235 41.668 20.9213Z" fill="#B1D8B0"/>
<path d="M46.1577 28.5292C46.7813 29.6517 46.906 30.7741 46.4072 31.0235C45.9083 31.273 44.9106 30.7741 44.287 29.6517C43.6634 28.5292 43.5387 27.4068 44.0376 27.1574C44.6611 26.7832 45.5341 27.4068 46.1577 28.5292Z" fill="#B1D8B0"/>
<path d="M46.906 15.808C47.5296 16.9305 47.6543 18.0529 47.1554 18.3024C46.6566 18.5518 45.6589 18.0529 45.0353 16.9305C44.4117 15.808 44.287 14.6856 44.7858 14.4362C45.4094 14.062 46.2824 14.6856 46.906 15.808Z" fill="#B1D8B0"/>
<path d="M51.6453 22.6672C52.2689 23.7896 52.3936 24.9121 51.8947 25.1615C51.3958 25.4109 50.3981 24.9121 49.7745 23.7896C49.151 22.6672 49.0262 21.5447 49.5251 21.2953C50.024 20.9211 51.0217 21.5447 51.6453 22.6672Z" fill="#B1D8B0"/>
<path d="M54.2643 15.808C54.8879 16.9305 55.0126 18.0529 54.5137 18.3024C54.0149 18.5518 53.0171 18.0529 52.3936 16.9305C51.77 15.808 51.6453 14.6856 52.1441 14.4362C52.643 14.062 53.516 14.6856 54.2643 15.808Z" fill="#B1D8B0"/>
<path d="M58.754 21.9192C59.3776 23.0416 59.5023 24.1641 59.0035 24.4135C58.5046 24.6629 57.5069 24.1641 56.8833 23.0416C56.2597 21.9192 56.135 20.7968 56.6339 20.5473C57.1327 20.2979 58.1305 20.7968 58.754 21.9192Z" fill="#B1D8B0"/>
<path d="M64.6157 37.2595C65.2393 38.3819 65.364 39.5043 64.8652 39.7538C64.3663 40.0032 63.3686 39.5043 62.745 38.3819C62.1214 37.2595 61.9967 36.137 62.4956 35.8876C62.9944 35.5134 63.9922 36.137 64.6157 37.2595Z" fill="#B1D8B0"/>
<path d="M34.1851 39.6283C34.8086 40.7507 34.9334 41.8732 34.4345 42.1226C33.9356 42.372 32.9379 41.8732 32.3143 40.7507C31.6908 39.6283 31.566 38.5058 32.0649 38.2564C32.5638 38.007 33.4368 38.6306 34.1851 39.6283Z" fill="#B1D8B0"/>
<path d="M41.2938 36.8852C41.9174 38.0076 42.0421 39.1301 41.5433 39.3795C41.0444 39.6289 40.0467 39.1301 39.4231 38.0076C38.7995 36.8852 38.6748 35.7627 39.1737 35.5133C39.6725 35.1392 40.5455 35.7627 41.2938 36.8852Z" fill="#B1D8B0"/>
<path d="M41.5433 45.9897C42.1669 47.1121 42.2916 48.2346 41.7928 48.484C41.2939 48.7334 40.2962 48.2346 39.6726 47.1121C39.049 45.9897 38.9243 44.8672 39.4232 44.6178C40.0468 44.2437 40.9198 44.8672 41.5433 45.9897Z" fill="#B1D8B0"/>
<path d="M46.4071 41.2499C47.0307 42.3724 47.1554 43.4948 46.6565 43.7442C46.1577 43.9937 45.16 43.4948 44.5364 42.3724C43.9128 41.2499 43.7881 40.1275 44.2869 39.8781C44.7858 39.5039 45.7835 40.1275 46.4071 41.2499Z" fill="#B1D8B0"/>
<path d="M50.7722 33.3928C51.3958 34.5153 51.5205 35.6377 51.0217 35.8871C50.5228 36.1366 49.5251 35.6377 48.9015 34.5153C48.2779 33.3928 48.1532 32.2704 48.6521 32.021C49.2756 31.7715 50.1486 32.2704 50.7722 33.3928Z" fill="#B1D8B0"/>
<path d="M56.6338 31.0236C57.2574 32.1461 57.3821 33.2685 56.8832 33.5179C56.3844 33.7674 55.3866 33.2685 54.7631 32.1461C54.1395 31.0236 54.0148 29.9012 54.5136 29.6517C55.0125 29.2776 55.8855 29.9012 56.6338 31.0236Z" fill="#B1D8B0"/>
<path d="M53.516 42.9965C54.1396 44.1189 54.2643 45.2413 53.7654 45.4908C53.2666 45.7402 52.2688 45.2413 51.6453 44.1189C51.0217 42.9965 50.897 41.874 51.3958 41.6246C51.8947 41.3751 52.8924 41.9987 53.516 42.9965Z" fill="#B1D8B0"/>
<path d="M63.7427 30.15C64.3663 31.2725 64.491 32.3949 63.9921 32.6443C63.4933 32.8938 62.4955 32.3949 61.872 31.2725C61.2484 30.15 61.1237 29.0276 61.6225 28.7781C62.1214 28.5287 63.1191 29.1523 63.7427 30.15Z" fill="#B1D8B0"/>
<path d="M59.7518 40.3771C60.3754 41.4995 60.5001 42.622 60.0013 42.8714C59.5024 43.1208 58.5047 42.622 57.8811 41.4995C57.2575 40.3771 57.1328 39.2546 57.6317 39.0052C58.1305 38.7558 59.0035 39.3793 59.7518 40.3771Z" fill="#B1D8B0"/>
<path d="M59.7518 46.9867C60.3754 48.1091 60.5001 49.2316 60.0013 49.481C59.5024 49.7304 58.5047 49.2316 57.8811 48.1091C57.2575 46.9867 57.1328 45.8642 57.6317 45.6148C58.1305 45.3654 59.0035 45.989 59.7518 46.9867Z" fill="#B1D8B0"/>
<path d="M50.3982 47.9846C51.0218 49.1071 51.1465 50.2295 50.6476 50.4789C50.1488 50.7284 49.151 50.2295 48.5275 49.1071C47.9039 47.9846 47.7792 46.8622 48.278 46.6128C48.7769 46.3633 49.7746 46.8622 50.3982 47.9846Z" fill="#B1D8B0"/>
<path d="M59.5023 102.111L52.144 97.6212C52.144 97.6212 43.0398 80.161 47.6543 62.7008C51.3958 48.6079 65.6133 36.5105 83.323 45.8642C100.908 55.3426 107.144 68.5625 93.5497 86.5215C81.3275 102.859 65.8628 105.977 65.8628 105.977L59.5023 102.111Z" fill="#399648"/>
<path d="M85.1937 47.1108C99.6607 56.3398 103.901 68.8114 91.5542 85.3986C79.3321 101.736 63.8673 104.854 63.8673 104.854L65.8628 106.101C65.8628 106.101 81.3275 102.859 93.5497 86.6457C106.52 69.1855 101.282 56.3398 85.1937 47.1108Z" fill="#497E44"/>
<path d="M67.4839 48.8577C66.8603 49.9802 65.8626 50.6037 65.3637 50.2296C64.8649 49.8555 64.9896 48.733 65.6132 47.7353C66.2367 46.6128 67.2345 45.9893 67.7333 46.3634C68.2322 46.6128 68.1075 47.7353 67.4839 48.8577Z" fill="#B1D8B0"/>
<path d="M72.4725 53.9705C71.849 55.093 70.8512 55.7165 70.3524 55.3424C69.8535 54.9682 69.9782 53.8458 70.6018 52.8481C71.2254 51.7256 72.2231 51.1021 72.722 51.4762C73.2208 51.7256 73.0961 52.8481 72.4725 53.9705Z" fill="#B1D8B0"/>
<path d="M59.1281 53.2225C58.5045 54.3449 57.5068 54.9685 57.0079 54.5943C56.509 54.2202 56.6337 53.0978 57.2573 52.1C57.8809 50.9776 58.8786 50.354 59.3775 50.7282C59.8764 50.9776 59.7516 52.1 59.1281 53.2225Z" fill="#B1D8B0"/>
<path d="M64.7404 57.5872C64.1168 58.7097 63.1191 59.3332 62.6202 58.9591C62.1213 58.5849 62.246 57.4625 62.8696 56.4648C63.4932 55.3423 64.4909 54.7188 64.9898 55.0929C65.4887 55.3423 65.4887 56.4648 64.7404 57.5872Z" fill="#B1D8B0"/>
<path d="M77.3366 48.1092C76.713 49.2316 75.7153 49.8552 75.2164 49.4811C74.7175 49.1069 74.8422 47.9845 75.4658 46.9868C76.0894 45.989 77.0871 45.2407 77.586 45.6149C78.0849 45.989 77.9601 47.1115 77.3366 48.1092Z" fill="#B1D8B0"/>
<path d="M69.6043 63.0753C68.9807 64.1977 67.983 64.8213 67.4841 64.4471C66.9852 64.073 67.1099 62.9505 67.7335 61.9528C68.3571 60.8304 69.3548 60.2068 69.8537 60.5809C70.3526 60.8304 70.2278 61.9528 69.6043 63.0753Z" fill="#B1D8B0"/>
<path d="M81.0779 53.8463C80.4543 54.9687 79.4566 55.5923 78.9577 55.2181C78.4589 54.844 78.5836 53.7215 79.2072 52.7238C79.8307 51.6014 80.8285 50.9778 81.3273 51.3519C81.8262 51.7261 81.8262 52.8485 81.0779 53.8463Z" fill="#B1D8B0"/>
<path d="M87.8128 54.5943C87.1892 55.7167 86.1915 56.3403 85.6926 55.9662C85.1937 55.592 85.3184 54.4696 85.942 53.4719C86.5656 52.3494 87.5633 51.7258 88.0622 52.1C88.5611 52.3494 88.561 53.4719 87.8128 54.5943Z" fill="#B1D8B0"/>
<path d="M78.9579 61.9527C78.3343 63.0751 77.3366 63.6987 76.8377 63.3246C76.3389 62.9504 76.4636 61.828 77.0872 60.8303C77.7107 59.7078 78.7085 59.0842 79.2073 59.4584C79.7062 59.8325 79.7062 60.955 78.9579 61.9527Z" fill="#B1D8B0"/>
<path d="M93.3003 60.4559C92.6767 61.5783 91.679 62.2019 91.1801 61.8277C90.6813 61.4536 90.806 60.3312 91.4296 59.3334C92.0531 58.211 93.0509 57.5874 93.5497 57.9616C94.0486 58.3357 93.9239 59.4581 93.3003 60.4559Z" fill="#B1D8B0"/>
<path d="M74.3433 69.5606C73.7197 70.6831 72.722 71.3066 72.2231 70.9325C71.7242 70.5583 71.849 69.4359 72.4725 68.4382C73.0961 67.3157 74.0938 66.6921 74.5927 67.0663C75.0916 67.4404 75.0916 68.5629 74.3433 69.5606Z" fill="#B1D8B0"/>
<path d="M86.0668 64.1971C85.4432 65.3195 84.4455 65.9431 83.9466 65.569C83.4478 65.1948 83.5725 64.0724 84.196 63.0746C84.8196 61.9522 85.8174 61.3286 86.3162 61.7028C86.8151 62.0769 86.8151 63.1994 86.0668 64.1971Z" fill="#B1D8B0"/>
<path d="M82.2006 71.6805C81.577 72.8029 80.5793 73.4265 80.0804 73.0524C79.5815 72.6782 79.7063 71.5558 80.3298 70.558C80.9534 69.4356 81.9511 68.812 82.45 69.1862C82.9489 69.4356 82.8241 70.558 82.2006 71.6805Z" fill="#B1D8B0"/>
<path d="M91.9284 69.8091C91.3048 70.9316 90.307 71.5552 89.8082 71.181C89.3093 70.8069 89.434 69.6844 90.0576 68.6867C90.6812 67.5643 91.6789 66.9407 92.1778 67.3148C92.6766 67.689 92.5519 68.8114 91.9284 69.8091Z" fill="#B1D8B0"/>
<path d="M98.5382 69.8091C97.9146 70.9316 96.9169 71.5552 96.4181 71.181C95.9192 70.8069 96.0439 69.6844 96.6675 68.6867C97.2911 67.5643 98.2888 66.9407 98.7877 67.3148C99.2865 67.5643 99.2865 68.6867 98.5382 69.8091Z" fill="#B1D8B0"/>
<path d="M86.3163 77.6671C85.6927 78.7895 84.695 79.4131 84.1961 79.0389C83.6973 78.6648 83.822 77.5423 84.4456 76.5446C85.0691 75.4222 86.0669 74.7986 86.5657 75.1727C87.0646 75.5469 86.9399 76.6693 86.3163 77.6671Z" fill="#B1D8B0"/>
<path d="M95.0463 77.6671C94.4227 78.7895 93.425 79.4131 92.9261 79.0389C92.4272 78.6648 92.552 77.5423 93.1755 76.5446C93.7991 75.4222 94.7968 74.7986 95.2957 75.1727C95.7946 75.4222 95.7946 76.5446 95.0463 77.6671Z" fill="#B1D8B0"/>
<path d="M90.6813 85.0247C90.0577 86.1472 89.06 86.7707 88.5611 86.3966C88.0623 86.0224 88.187 84.9 88.8106 83.9023C89.4341 82.7798 90.4319 82.1563 90.9307 82.5304C91.4296 82.7798 91.3049 83.9023 90.6813 85.0247Z" fill="#B1D8B0"/>
<path d="M54.264 59.084C53.6405 60.2065 52.6427 60.8301 52.1439 60.4559C51.645 60.0818 51.7697 58.9593 52.3933 57.9616C53.0169 56.8392 54.0146 56.2156 54.5135 56.5897C55.0123 56.9639 54.8876 58.0863 54.264 59.084Z" fill="#B1D8B0"/>
<path d="M58.7539 64.1971C58.1303 65.3195 57.1326 65.9431 56.6337 65.569C56.1349 65.1948 56.2596 64.0724 56.8832 63.0746C57.5068 61.9522 58.5045 61.3286 59.0034 61.7028C59.5022 61.9522 59.3775 63.0746 58.7539 64.1971Z" fill="#B1D8B0"/>
<path d="M52.0194 68.3131C51.3958 69.4355 50.3981 70.0591 49.8993 69.6849C49.4004 69.3108 49.5251 68.1883 50.1487 67.1906C50.7723 66.0682 51.77 65.4446 52.2688 65.8187C52.7677 66.0682 52.643 67.1906 52.0194 68.3131Z" fill="#B1D8B0"/>
<path d="M64.6156 69.1861C63.992 70.3085 62.9943 70.9321 62.4954 70.558C61.9966 70.1838 62.1213 69.0614 62.7449 68.0637C63.3685 66.9412 64.3662 66.3176 64.865 66.6918C65.3639 67.0659 65.2392 68.0637 64.6156 69.1861Z" fill="#B1D8B0"/>
<path d="M56.6337 73.8004C56.0101 74.9228 55.0124 75.5464 54.5135 75.1722C54.0146 74.7981 54.1394 73.6756 54.7629 72.6779C55.3865 71.5555 56.3842 70.9319 56.8831 71.306C57.382 71.5555 57.2573 72.6779 56.6337 73.8004Z" fill="#B1D8B0"/>
<path d="M52.1441 81.1588C51.5205 82.2812 50.5227 82.9048 50.0239 82.5306C49.525 82.1565 49.6497 81.034 50.2733 80.0363C50.8969 78.9139 51.8946 78.2903 52.3935 78.6644C52.8923 78.9139 52.7676 80.0363 52.1441 81.1588Z" fill="#B1D8B0"/>
<path d="M63.1188 75.7957C62.4952 76.9182 61.4975 77.5417 60.9986 77.1676C60.4998 76.7934 60.6245 75.671 61.248 74.6733C61.8716 73.5508 62.8694 72.9273 63.3682 73.3014C63.8671 73.6755 63.7424 74.798 63.1188 75.7957Z" fill="#B1D8B0"/>
<path d="M72.2233 76.0452C71.5997 77.1677 70.602 77.7912 70.1031 77.4171C69.6042 77.043 69.729 75.9205 70.3525 74.9228C70.9761 73.8003 71.9738 73.1768 72.4727 73.5509C72.9716 73.8003 72.8469 74.9228 72.2233 76.0452Z" fill="#B1D8B0"/>
<path d="M77.0872 80.0362C76.4636 81.1586 75.4659 81.7822 74.967 81.4081C74.4681 81.0339 74.5929 79.9115 75.2164 78.9138C75.84 77.7913 76.8377 77.1677 77.3366 77.5419C77.8355 77.7913 77.7107 78.9138 77.0872 80.0362Z" fill="#B1D8B0"/>
<path d="M64.9896 83.0291C64.3661 84.1516 63.3683 84.7751 62.8695 84.401C62.3706 84.0268 62.4953 82.9044 63.1189 81.9067C63.7425 80.7842 64.7402 80.1607 65.2391 80.5348C65.7379 80.7842 65.6132 81.9067 64.9896 83.0291Z" fill="#B1D8B0"/>
<path d="M81.2028 86.0228C80.5792 87.1452 79.5815 87.7688 79.0826 87.3946C78.5837 87.0205 78.7085 85.898 79.332 84.9003C79.9556 83.7779 80.9533 83.1543 81.4522 83.5285C81.9511 83.9026 81.8264 84.9003 81.2028 86.0228Z" fill="#B1D8B0"/>
<path d="M70.2279 87.2696C69.6043 88.392 68.6066 89.0156 68.1077 88.6415C67.6089 88.2673 67.7336 87.1449 68.3572 86.1471C68.9808 85.0247 69.9785 84.4011 70.4773 84.7753C70.9762 85.1494 70.8515 86.2719 70.2279 87.2696Z" fill="#B1D8B0"/>
<path d="M83.697 92.2581C83.0735 93.3806 82.0757 94.0041 81.5769 93.63C81.078 93.2558 81.2027 92.1334 81.8263 91.1357C82.4499 90.0132 83.4476 89.3897 83.9465 89.7638C84.4453 90.0132 84.3206 91.1357 83.697 92.2581Z" fill="#B1D8B0"/>
<path d="M73.0962 93.8799C72.4726 95.0024 71.4749 95.626 70.976 95.2518C70.4772 94.8777 70.6019 93.7552 71.2255 92.7575C71.849 91.6351 72.8468 91.0115 73.3456 91.3856C73.8445 91.6351 73.7198 92.7575 73.0962 93.8799Z" fill="#B1D8B0"/>
<path d="M59.0034 82.6556C58.3799 83.778 57.3821 84.4016 56.8833 84.0275C56.3844 83.6533 56.5091 82.5309 57.1327 81.5331C57.7563 80.4107 58.754 79.7871 59.2529 80.1613C59.7517 80.4107 59.627 81.5331 59.0034 82.6556Z" fill="#B1D8B0"/>
<path d="M61.6223 92.7569C60.9987 93.8793 60.001 94.5029 59.5022 94.1288C59.0033 93.7546 59.128 92.6322 59.7516 91.6345C60.3752 90.512 61.3729 89.8884 61.8718 90.2626C62.3706 90.6367 62.2459 91.7592 61.6223 92.7569Z" fill="#B1D8B0"/>
<path d="M78.2096 95.8748C77.586 96.9973 76.5883 97.6208 76.0894 97.2467C75.5906 96.8725 75.7153 95.7501 76.3389 94.7524C76.9625 93.6299 77.9602 93.0064 78.459 93.3805C78.9579 93.6299 78.8332 94.7524 78.2096 95.8748Z" fill="#B1D8B0"/>
<path d="M54.6383 89.889C54.0147 91.0114 53.017 91.635 52.5181 91.2609C52.0193 90.8867 52.144 89.7643 52.7676 88.7665C53.3912 87.6441 54.3889 87.0205 54.8877 87.3947C55.3866 87.6441 55.2619 88.7665 54.6383 89.889Z" fill="#B1D8B0"/>
<path d="M67.3593 98.2447C66.7357 99.3671 65.738 99.9907 65.2391 99.6166C64.7402 99.2424 64.8649 98.12 65.4885 97.1222C66.1121 95.9998 67.1098 95.3762 67.6087 95.7504C68.1076 95.9998 67.9828 97.1222 67.3593 98.2447Z" fill="#B1D8B0"/>
<path d="M56.8833 164.969H46.6566C46.6566 164.969 26.7021 152.872 20.591 132.418C15.7271 115.831 22.7112 94.7542 46.2825 93.3823C69.9785 92.0104 84.4455 101.614 81.7017 128.178C79.3321 152.248 65.6134 164.969 65.6134 164.969H56.8833Z" fill="#399648"/>
<path d="M49.1509 93.2574C69.4796 93.7563 81.4523 103.734 79.0827 128.053C76.7131 152.123 62.9943 164.844 62.9943 164.844H65.8628C65.8628 164.844 79.4568 152.123 81.9511 128.053C84.4455 102.611 71.1009 92.8833 49.1509 93.2574Z" fill="#497E44"/>
<path d="M32.1895 106.103C32.1895 107.599 31.566 108.847 30.8177 108.847C30.0694 108.847 29.4458 107.599 29.4458 106.103C29.4458 104.606 30.0694 103.359 30.8177 103.359C31.566 103.359 32.1895 104.606 32.1895 106.103Z" fill="#B1D8B0"/>
<path d="M40.4206 108.098C40.4206 109.595 39.797 110.842 39.0488 110.842C38.3005 110.842 37.6769 109.595 37.6769 108.098C37.6769 106.602 38.3005 105.355 39.0488 105.355C39.9218 105.479 40.4206 106.602 40.4206 108.098Z" fill="#B1D8B0"/>
<path d="M26.4525 115.582C26.4525 117.078 25.8289 118.326 25.0806 118.326C24.3323 118.326 23.7087 117.078 23.7087 115.582C23.7087 114.085 24.3323 112.838 25.0806 112.838C25.8289 112.838 26.4525 114.085 26.4525 115.582Z" fill="#B1D8B0"/>
<path d="M34.8084 116.454C34.8084 117.951 34.1849 119.198 33.4366 119.198C32.6883 119.198 32.0647 117.951 32.0647 116.454C32.0647 114.958 32.6883 113.711 33.4366 113.711C34.1849 113.835 34.8084 114.958 34.8084 116.454Z" fill="#B1D8B0"/>
<path d="M41.7927 99.244C41.7927 100.741 41.1691 101.988 40.4208 101.988C39.6725 101.988 39.049 100.741 39.049 99.244C39.049 97.7474 39.6725 96.5002 40.4208 96.5002C41.1691 96.625 41.7927 97.7474 41.7927 99.244Z" fill="#B1D8B0"/>
<path d="M43.0398 119.199C43.0398 120.695 42.4162 121.942 41.6679 121.942C40.9196 121.942 40.296 120.695 40.296 119.199C40.296 117.702 40.9196 116.455 41.6679 116.455C42.5409 116.455 43.0398 117.702 43.0398 119.199Z" fill="#B1D8B0"/>
<path d="M49.1508 102.736C49.1508 104.232 48.5273 105.479 47.779 105.479C47.0307 105.479 46.4071 104.232 46.4071 102.736C46.4071 101.239 47.0307 99.9919 47.779 99.9919C48.5273 100.117 49.1508 101.239 49.1508 102.736Z" fill="#B1D8B0"/>
<path d="M56.3844 99.244C56.3844 100.741 55.7608 101.988 55.0125 101.988C54.2642 101.988 53.6406 100.741 53.6406 99.244C53.6406 97.7474 54.2642 96.5002 55.0125 96.5002C55.7608 96.625 56.3844 97.7474 56.3844 99.244Z" fill="#B1D8B0"/>
<path d="M51.7437 112.744C51.7437 114.24 51.1202 115.487 50.3719 115.487C49.6236 115.487 49 114.24 49 112.744C49 111.247 49.6236 110 50.3719 110C51.1202 110 51.7437 111.247 51.7437 112.744Z" fill="#B1D8B0"/>
<path d="M65.6134 101.988C65.6134 103.484 64.9898 104.731 64.2415 104.731C63.4932 104.731 62.8696 103.484 62.8696 101.988C62.8696 100.491 63.4932 99.2439 64.2415 99.2439C64.9898 99.2439 65.6134 100.491 65.6134 101.988Z" fill="#B1D8B0"/>
<path d="M52.0194 122.815C52.0194 124.312 51.3958 125.559 50.6475 125.559C49.8992 125.559 49.2756 124.312 49.2756 122.815C49.2756 121.319 49.8992 120.072 50.6475 120.072C51.3958 120.072 52.0194 121.319 52.0194 122.815Z" fill="#B1D8B0"/>
<path d="M60.6247 110.218C60.6247 111.715 60.0012 112.962 59.2529 112.962C58.5046 112.962 57.881 111.715 57.881 110.218C57.881 108.722 58.5046 107.475 59.2529 107.475C60.0012 107.475 60.6247 108.722 60.6247 110.218Z" fill="#B1D8B0"/>
<path d="M59.8764 122.815C60.6341 122.815 61.2483 121.586 61.2483 120.071C61.2483 118.556 60.6341 117.327 59.8764 117.327C59.1187 117.327 58.5045 118.556 58.5045 120.071C58.5045 121.586 59.1187 122.815 59.8764 122.815Z" fill="#B1D8B0"/>
<path d="M69.8537 112.339C69.8537 113.836 69.2302 115.083 68.4819 115.083C67.7336 115.083 67.11 113.836 67.11 112.339C67.11 110.842 67.7336 109.595 68.4819 109.595C69.3549 109.595 69.8537 110.842 69.8537 112.339Z" fill="#B1D8B0"/>
<path d="M76.5882 108.098C76.5882 109.595 75.9646 110.842 75.2164 110.842C74.4681 110.842 73.8445 109.595 73.8445 108.098C73.8445 106.602 74.4681 105.355 75.2164 105.355C76.0894 105.479 76.5882 106.602 76.5882 108.098Z" fill="#B1D8B0"/>
<path d="M68.9807 123.688C68.9807 125.185 68.3571 126.432 67.6088 126.432C66.8605 126.432 66.2369 125.185 66.2369 123.688C66.2369 122.192 66.8605 120.945 67.6088 120.945C68.3571 121.069 68.9807 122.192 68.9807 123.688Z" fill="#B1D8B0"/>
<path d="M77.9603 118.325C77.9603 119.821 77.3367 121.069 76.5884 121.069C75.8401 121.069 75.2166 119.821 75.2166 118.325C75.2166 116.828 75.8401 115.581 76.5884 115.581C77.3367 115.581 77.9603 116.828 77.9603 118.325Z" fill="#B1D8B0"/>
<path d="M77.9603 128.428C77.9603 129.924 77.3367 131.171 76.5884 131.171C75.8401 131.171 75.2166 129.924 75.2166 128.428C75.2166 126.931 75.8401 125.684 76.5884 125.684C77.3367 125.684 77.9603 126.931 77.9603 128.428Z" fill="#B1D8B0"/>
<path d="M25.0807 124.686C25.0807 126.182 24.4571 127.43 23.7088 127.43C22.9605 127.43 22.3369 126.182 22.3369 124.686C22.3369 123.189 22.9605 121.942 23.7088 121.942C24.5818 121.942 25.0807 123.189 25.0807 124.686Z" fill="#B1D8B0"/>
<path d="M32.6885 126.93C32.6885 128.427 32.0649 129.674 31.3166 129.674C30.5683 129.674 29.9447 128.427 29.9447 126.93C29.9447 125.433 30.5683 124.186 31.3166 124.186C32.1896 124.186 32.6885 125.433 32.6885 126.93Z" fill="#B1D8B0"/>
<path d="M28.5726 135.286C28.5726 136.783 27.949 138.03 27.2007 138.03C26.4524 138.03 25.8289 136.783 25.8289 135.286C25.8289 133.79 26.4524 132.543 27.2007 132.543C27.949 132.543 28.5726 133.79 28.5726 135.286Z" fill="#B1D8B0"/>
<path d="M41.7927 128.428C41.7927 129.924 41.1691 131.171 40.4208 131.171C39.6725 131.171 39.049 129.924 39.049 128.428C39.049 126.931 39.6725 125.684 40.4208 125.684C41.1691 125.684 41.7927 126.931 41.7927 128.428Z" fill="#B1D8B0"/>
<path d="M35.1825 140.775C35.9402 140.775 36.5544 139.546 36.5544 138.031C36.5544 136.516 35.9402 135.287 35.1825 135.287C34.4249 135.287 33.8107 136.516 33.8107 138.031C33.8107 139.546 34.4249 140.775 35.1825 140.775Z" fill="#B1D8B0"/>
<path d="M36.5544 148.132C36.5544 149.629 35.9308 150.876 35.1825 150.876C34.4343 150.876 33.8107 149.629 33.8107 148.132C33.8107 146.636 34.4343 145.388 35.1825 145.388C35.9308 145.513 36.5544 146.636 36.5544 148.132Z" fill="#B1D8B0"/>
<path d="M44.4116 136.035C44.4116 137.532 43.788 138.779 43.0397 138.779C42.2914 138.779 41.6678 137.532 41.6678 136.035C41.6678 134.539 42.2914 133.292 43.0397 133.292C43.788 133.416 44.4116 134.539 44.4116 136.035Z" fill="#B1D8B0"/>
<path d="M53.7654 130.672C53.7654 132.168 53.1418 133.415 52.3935 133.415C51.6452 133.415 51.0216 132.168 51.0216 130.672C51.0216 129.175 51.6452 127.928 52.3935 127.928C53.1418 127.928 53.7654 129.175 53.7654 130.672Z" fill="#B1D8B0"/>
<path d="M61.1235 131.795C61.1235 133.291 60.4999 134.539 59.7516 134.539C59.0033 134.539 58.3798 133.291 58.3798 131.795C58.3798 130.298 59.0033 129.051 59.7516 129.051C60.6246 129.051 61.1235 130.298 61.1235 131.795Z" fill="#B1D8B0"/>
<path d="M50.6476 142.271C50.6476 143.768 50.024 145.015 49.2757 145.015C48.5274 145.015 47.9038 143.768 47.9038 142.271C47.9038 140.775 48.5274 139.528 49.2757 139.528C50.024 139.528 50.6476 140.775 50.6476 142.271Z" fill="#B1D8B0"/>
<path d="M68.9807 135.286C68.9807 136.783 68.3571 138.03 67.6088 138.03C66.8605 138.03 66.2369 136.783 66.2369 135.286C66.2369 133.79 66.8605 132.543 67.6088 132.543C68.3571 132.543 68.9807 133.79 68.9807 135.286Z" fill="#B1D8B0"/>
<path d="M58.6294 143.393C58.6294 144.89 58.0058 146.137 57.2575 146.137C56.5092 146.137 55.8856 144.89 55.8856 143.393C55.8856 141.896 56.5092 140.649 57.2575 140.649C58.0058 140.649 58.6294 141.896 58.6294 143.393Z" fill="#B1D8B0"/>
<path d="M75.3412 140.026C75.3412 141.522 74.7176 142.769 73.9693 142.769C73.221 142.769 72.5974 141.522 72.5974 140.026C72.5974 138.529 73.221 137.282 73.9693 137.282C74.7176 137.407 75.3412 138.529 75.3412 140.026Z" fill="#B1D8B0"/>
<path d="M65.6134 148.132C65.6134 149.629 64.9898 150.876 64.2415 150.876C63.4932 150.876 62.8696 149.629 62.8696 148.132C62.8696 146.636 63.4932 145.388 64.2415 145.388C64.9898 145.513 65.6134 146.636 65.6134 148.132Z" fill="#B1D8B0"/>
<path d="M44.4116 145.514C44.4116 147.01 43.788 148.257 43.0397 148.257C42.2914 148.257 41.6678 147.01 41.6678 145.514C41.6678 144.017 42.2914 142.77 43.0397 142.77C43.788 142.77 44.4116 144.017 44.4116 145.514Z" fill="#B1D8B0"/>
<path d="M53.2665 154.244C53.2665 155.74 52.6429 156.987 51.8946 156.987C51.1463 156.987 50.5227 155.74 50.5227 154.244C50.5227 152.747 51.1463 151.5 51.8946 151.5C52.6429 151.5 53.2665 152.747 53.2665 154.244Z" fill="#B1D8B0"/>
<path d="M71.9739 147.135C71.9739 148.631 71.3503 149.878 70.602 149.878C69.8537 149.878 69.2301 148.631 69.2301 147.135C69.2301 145.638 69.8537 144.391 70.602 144.391C71.3503 144.391 71.9739 145.638 71.9739 147.135Z" fill="#B1D8B0"/>
<path d="M44.4116 155.491C44.4116 156.988 43.788 158.235 43.0397 158.235C42.2914 158.235 41.6678 156.988 41.6678 155.491C41.6678 153.995 42.2914 152.748 43.0397 152.748C43.788 152.872 44.4116 153.995 44.4116 155.491Z" fill="#B1D8B0"/>
<path d="M62.4956 156.114C62.4956 157.611 61.872 158.858 61.1237 158.858C60.3754 158.858 59.7518 157.611 59.7518 156.114C59.7518 154.618 60.3754 153.371 61.1237 153.371C61.872 153.371 62.4956 154.618 62.4956 156.114Z" fill="#B1D8B0"/>
<path d="M14.7297 159.232V167.962C14.7297 191.409 31.4417 210.615 51.7703 210.615H56.0107C76.3393 210.615 93.0513 191.409 93.0513 167.962V159.232H14.7297Z" fill="#ECC742"/>
<path d="M101.906 173.824H6.62329V175.196H101.906V173.824Z" fill="white"/>
<path d="M101.906 195.025H6.62329V196.397H101.906V195.025Z" fill="white"/>
<path opacity="0.1" d="M76.9631 159.232V167.962C76.9631 191.159 71.4756 210.241 51.2716 210.615C51.521 210.615 51.6458 210.615 51.8952 210.615H56.1355C76.4642 210.615 93.1761 191.409 93.1761 167.962V159.232H76.9631Z" fill="#482C80"/>
<path d="M96.7927 154.992H11.2377V163.473H96.7927V154.992Z" fill="#D4A000"/>
</svg>
